<?xml version="1.0" encoding="UTF-8" standalone="no"?>
<!DOCTYPE svg PUBLIC "-//W3C//DTD SVG 1.1//EN"
 "http://www.w3.org/Graphics/SVG/1.1/DTD/svg11.dtd">
<!-- Generated by graphviz version 2.43.0 (0)
 -->
<!-- Title: VarsBuildingTree Pages: 1 -->
<svg width="3323pt" height="1725pt"
 viewBox="0.00 0.00 3323.00 1725.00" xmlns="http://www.w3.org/2000/svg" xmlns:xlink="http://www.w3.org/1999/xlink">
<g id="graph0" class="graph" transform="scale(1 1) rotate(0) translate(4 1721)">
<title>VarsBuildingTree</title>
<polygon fill="white" stroke="transparent" points="-4,4 -4,-1721 3319,-1721 3319,4 -4,4"/>
<text text-anchor="middle" x="1657.5" y="-1703.4" font-family="Times,serif" font-size="12.00">VarsBuildingTree Visualization</text>
<!-- var_94840692889680 -->
<g id="node1" class="node">
<title>var_94840692889680</title>
<polygon fill="lightblue" stroke="black" stroke-width="2" points="2601,-88 1916,-44 2601,0 3286,-44 2601,-88"/>
<text text-anchor="middle" x="2601" y="-51.8" font-family="Times,serif" font-size="9.00">Ptr</text>
<text text-anchor="middle" x="2601" y="-41.8" font-family="Times,serif" font-size="9.00">PointedVarNode: ValVar ID: 898</text>
<text text-anchor="middle" x="2601" y="-31.8" font-family="Times,serif" font-size="9.00"> &#160;&#160;%24 = getelementptr inbounds [20 x i8], ptr %5, i32 0, i32 0, !dbg !3297 &#160;&quot;ln&quot;: 69, &quot;cl&quot;: 26, &quot;fl&quot;: &quot;../../sdemoservice/src/i_sdemo_service.cpp&quot; </text>
</g>
<!-- stmt_94840692778704 -->
<g id="node2" class="node">
<title>stmt_94840692778704</title>
<path fill="lightcoral" stroke="black" d="M2891,-247C2891,-247 2311,-247 2311,-247 2305,-247 2299,-241 2299,-235 2299,-235 2299,-195 2299,-195 2299,-189 2305,-183 2311,-183 2311,-183 2891,-183 2891,-183 2897,-183 2903,-189 2903,-195 2903,-195 2903,-235 2903,-235 2903,-241 2897,-247 2891,-247"/>
<text text-anchor="middle" x="2601" y="-232.8" font-family="Times,serif" font-size="9.00">Stmt[1005]</text>
<text text-anchor="middle" x="2601" y="-222.8" font-family="Times,serif" font-size="9.00">IntraICFGNode1005 fun: _Z27innerTureIllegalInforFlow_ci &quot;ln&quot;: 68, &quot;cl&quot;: 38, &quot;fl&quot;: &quot;../../sdemoservice/src/i_sdemo_service.cpp&quot; </text>
<text text-anchor="middle" x="2601" y="-212.8" font-family="Times,serif" font-size="9.00">StoreStmt: [Var894 &lt;&#45;&#45; Var135]t</text>
<text text-anchor="middle" x="2601" y="-202.8" font-family="Times,serif" font-size="9.00">ValVar ID: 895</text>
<text text-anchor="middle" x="2601" y="-192.8" font-family="Times,serif" font-size="9.00"> &#160;&#160;store i8 0, ptr %23, align 1, !dbg !3294 &#160;&quot;ln&quot;: 68, &quot;cl&quot;: 38, &quot;fl&quot;: &quot;../../sdemoservice/src/i_sdemo_service.cpp&quot; </text>
</g>
<!-- stmt_94840692778704&#45;&gt;var_94840692889680 -->
<g id="edge12" class="edge">
<title>stmt_94840692778704&#45;&gt;var_94840692889680</title>
<path fill="none" stroke="blue" d="M2601,-182.61C2601,-158.99 2601,-126.07 2601,-98.35"/>
<polygon fill="blue" stroke="blue" points="2604.5,-98.01 2601,-88.01 2597.5,-98.01 2604.5,-98.01"/>
<text text-anchor="middle" x="2615.5" y="-133.6" font-family="Times,serif" font-size="8.00">defines</text>
</g>
<!-- var_94840692777840 -->
<g id="node3" class="node">
<title>var_94840692777840</title>
<polygon fill="lightblue" stroke="black" stroke-width="2" points="2116,-430 1431,-386 2116,-342 2801,-386 2116,-430"/>
<text text-anchor="middle" x="2116" y="-393.8" font-family="Times,serif" font-size="9.00">Ptr</text>
<text text-anchor="middle" x="2116" y="-383.8" font-family="Times,serif" font-size="9.00">PointedVarNode: ValVar ID: 894</text>
<text text-anchor="middle" x="2116" y="-373.8" font-family="Times,serif" font-size="9.00"> &#160;&#160;%23 = getelementptr inbounds [20 x i8], ptr %5, i32 0, i32 19, !dbg !3293 &#160;&quot;ln&quot;: 68, &quot;cl&quot;: 5, &quot;fl&quot;: &quot;../../sdemoservice/src/i_sdemo_service.cpp&quot; </text>
</g>
<!-- var_94840692777840&#45;&gt;stmt_94840692778704 -->
<g id="edge10" class="edge">
<title>var_94840692777840&#45;&gt;stmt_94840692778704</title>
<path fill="none" stroke="red" d="M2220.34,-348.64C2303.81,-319.56 2420.05,-279.05 2502.06,-250.48"/>
<polygon fill="red" stroke="red" points="2503.6,-253.65 2511.89,-247.05 2501.29,-247.04 2503.6,-253.65"/>
<text text-anchor="middle" x="2399" y="-292.6" font-family="Times,serif" font-size="8.00">input</text>
</g>
<!-- stmt_94840692778112 -->
<g id="node4" class="node">
<title>stmt_94840692778112</title>
<path fill="lightcoral" stroke="black" d="M2485,-709C2485,-709 1747,-709 1747,-709 1741,-709 1735,-703 1735,-697 1735,-697 1735,-537 1735,-537 1735,-531 1741,-525 1747,-525 1747,-525 2485,-525 2485,-525 2491,-525 2497,-531 2497,-537 2497,-537 2497,-697 2497,-697 2497,-703 2491,-709 2485,-709"/>
<text text-anchor="middle" x="2116" y="-694.8" font-family="Times,serif" font-size="9.00">Stmt[1002]</text>
<text text-anchor="middle" x="2116" y="-684.8" font-family="Times,serif" font-size="9.00">CallICFGNode1002 fun: _Z27innerTureIllegalInforFlow_ci &quot;ln&quot;: 67, &quot;cl&quot;: 5, &quot;fl&quot;: &quot;../../sdemoservice/src/i_sdemo_service.cpp&quot; </text>
<text text-anchor="middle" x="2116" y="-674.8" font-family="Times,serif" font-size="9.00">GepStmt: [Var6913 &lt;&#45;&#45; Var887]t</text>
<text text-anchor="middle" x="2116" y="-664.8" font-family="Times,serif" font-size="9.00">ValVar ID: 893</text>
<text text-anchor="middle" x="2116" y="-654.8" font-family="Times,serif" font-size="9.00"> &#160;&#160;%22 = call ptr @strncpy(ptr noundef %16, ptr noundef %17, i32 noundef %21), !dbg !3292 &#160;&quot;ln&quot;: 67, &quot;cl&quot;: 5, &quot;fl&quot;: &quot;../../sdemoservice/src/i_sdemo_service.cpp&quot; </text>
<text text-anchor="middle" x="2116" y="-644.8" font-family="Times,serif" font-size="9.00">GepStmt: [Var6914 &lt;&#45;&#45; Var888]t</text>
<text text-anchor="middle" x="2116" y="-634.8" font-family="Times,serif" font-size="9.00">ValVar ID: 893</text>
<text text-anchor="middle" x="2116" y="-624.8" font-family="Times,serif" font-size="9.00"> &#160;&#160;%22 = call ptr @strncpy(ptr noundef %16, ptr noundef %17, i32 noundef %21), !dbg !3292 &#160;&quot;ln&quot;: 67, &quot;cl&quot;: 5, &quot;fl&quot;: &quot;../../sdemoservice/src/i_sdemo_service.cpp&quot; </text>
<text text-anchor="middle" x="2116" y="-614.8" font-family="Times,serif" font-size="9.00">LoadStmt: [Var6915 &lt;&#45;&#45; Var6914]t</text>
<text text-anchor="middle" x="2116" y="-604.8" font-family="Times,serif" font-size="9.00">ValVar ID: 893</text>
<text text-anchor="middle" x="2116" y="-594.8" font-family="Times,serif" font-size="9.00"> &#160;&#160;%22 = call ptr @strncpy(ptr noundef %16, ptr noundef %17, i32 noundef %21), !dbg !3292 &#160;&quot;ln&quot;: 67, &quot;cl&quot;: 5, &quot;fl&quot;: &quot;../../sdemoservice/src/i_sdemo_service.cpp&quot; </text>
<text text-anchor="middle" x="2116" y="-584.8" font-family="Times,serif" font-size="9.00">StoreStmt: [Var6913 &lt;&#45;&#45; Var6915]t</text>
<text text-anchor="middle" x="2116" y="-574.8" font-family="Times,serif" font-size="9.00">ValVar ID: 893</text>
<text text-anchor="middle" x="2116" y="-564.8" font-family="Times,serif" font-size="9.00"> &#160;&#160;%22 = call ptr @strncpy(ptr noundef %16, ptr noundef %17, i32 noundef %21), !dbg !3292 &#160;&quot;ln&quot;: 67, &quot;cl&quot;: 5, &quot;fl&quot;: &quot;../../sdemoservice/src/i_sdemo_service.cpp&quot; </text>
<text text-anchor="middle" x="2116" y="-554.8" font-family="Times,serif" font-size="9.00">CopyStmt: [Var893 &lt;&#45;&#45; Var887]t</text>
<text text-anchor="middle" x="2116" y="-544.8" font-family="Times,serif" font-size="9.00">ValVar ID: 893</text>
<text text-anchor="middle" x="2116" y="-534.8" font-family="Times,serif" font-size="9.00"> &#160;&#160;%22 = call ptr @strncpy(ptr noundef %16, ptr noundef %17, i32 noundef %21), !dbg !3292 &#160;&quot;ln&quot;: 67, &quot;cl&quot;: 5, &quot;fl&quot;: &quot;../../sdemoservice/src/i_sdemo_service.cpp&quot; </text>
</g>
<!-- stmt_94840692778112&#45;&gt;var_94840692777840 -->
<g id="edge9" class="edge">
<title>stmt_94840692778112&#45;&gt;var_94840692777840</title>
<path fill="none" stroke="blue" d="M2116,-524.84C2116,-496.11 2116,-465.35 2116,-440.18"/>
<polygon fill="blue" stroke="blue" points="2119.5,-440.12 2116,-430.12 2112.5,-440.12 2119.5,-440.12"/>
<text text-anchor="middle" x="2130.5" y="-475.6" font-family="Times,serif" font-size="8.00">defines</text>
</g>
<!-- var_94840692778256 -->
<g id="node5" class="node">
<title>var_94840692778256</title>
<polygon fill="lightblue" stroke="black" stroke-width="2" points="1645,-892 1000,-848 1645,-804 2290,-848 1645,-892"/>
<text text-anchor="middle" x="1645" y="-855.8" font-family="Times,serif" font-size="9.00">Ptr</text>
<text text-anchor="middle" x="1645" y="-845.8" font-family="Times,serif" font-size="9.00">PointedVarNode: ValVar ID: 887</text>
<text text-anchor="middle" x="1645" y="-835.8" font-family="Times,serif" font-size="9.00"> &#160;&#160;%16 = getelementptr inbounds i8, ptr %13, i32 %15, !dbg !3286 &#160;&quot;ln&quot;: 67, &quot;cl&quot;: 23, &quot;fl&quot;: &quot;../../sdemoservice/src/i_sdemo_service.cpp&quot; </text>
</g>
<!-- var_94840692778256&#45;&gt;stmt_94840692778112 -->
<g id="edge7" class="edge">
<title>var_94840692778256&#45;&gt;stmt_94840692778112</title>
<path fill="none" stroke="red" d="M1722.78,-809.19C1776.41,-783.11 1850.25,-747.21 1919.47,-713.55"/>
<polygon fill="red" stroke="red" points="1921.3,-716.55 1928.76,-709.03 1918.24,-710.26 1921.3,-716.55"/>
<text text-anchor="middle" x="1850" y="-754.6" font-family="Times,serif" font-size="8.00">input</text>
</g>
<!-- stmt_94840692848944 -->
<g id="node6" class="node">
<title>stmt_94840692848944</title>
<path fill="lightcoral" stroke="black" d="M1932,-1051C1932,-1051 1358,-1051 1358,-1051 1352,-1051 1346,-1045 1346,-1039 1346,-1039 1346,-999 1346,-999 1346,-993 1352,-987 1358,-987 1358,-987 1932,-987 1932,-987 1938,-987 1944,-993 1944,-999 1944,-999 1944,-1039 1944,-1039 1944,-1045 1938,-1051 1932,-1051"/>
<text text-anchor="middle" x="1645" y="-1036.8" font-family="Times,serif" font-size="9.00">Stmt[990]</text>
<text text-anchor="middle" x="1645" y="-1026.8" font-family="Times,serif" font-size="9.00">IntraICFGNode990 fun: _Z27innerTureIllegalInforFlow_ci &quot;ln&quot;: 64, &quot;cl&quot;: 38, &quot;fl&quot;: &quot;../../sdemoservice/src/i_sdemo_service.cpp&quot; </text>
<text text-anchor="middle" x="1645" y="-1016.8" font-family="Times,serif" font-size="9.00">StoreStmt: [Var880 &lt;&#45;&#45; Var135]t</text>
<text text-anchor="middle" x="1645" y="-1006.8" font-family="Times,serif" font-size="9.00">ValVar ID: 881</text>
<text text-anchor="middle" x="1645" y="-996.8" font-family="Times,serif" font-size="9.00"> &#160;&#160;store i8 0, ptr %12, align 1, !dbg !3282 &#160;&quot;ln&quot;: 64, &quot;cl&quot;: 38, &quot;fl&quot;: &quot;../../sdemoservice/src/i_sdemo_service.cpp&quot; </text>
</g>
<!-- stmt_94840692848944&#45;&gt;var_94840692778256 -->
<g id="edge6" class="edge">
<title>stmt_94840692848944&#45;&gt;var_94840692778256</title>
<path fill="none" stroke="blue" d="M1645,-986.61C1645,-962.99 1645,-930.07 1645,-902.35"/>
<polygon fill="blue" stroke="blue" points="1648.5,-902.01 1645,-892.01 1641.5,-902.01 1648.5,-902.01"/>
<text text-anchor="middle" x="1659.5" y="-937.6" font-family="Times,serif" font-size="8.00">defines</text>
</g>
<!-- var_94840692714416 -->
<g id="node7" class="node">
<title>var_94840692714416</title>
<polygon fill="lightblue" stroke="black" stroke-width="2" points="1160,-1234 475,-1190 1160,-1146 1845,-1190 1160,-1234"/>
<text text-anchor="middle" x="1160" y="-1197.8" font-family="Times,serif" font-size="9.00">Ptr</text>
<text text-anchor="middle" x="1160" y="-1187.8" font-family="Times,serif" font-size="9.00">PointedVarNode: ValVar ID: 880</text>
<text text-anchor="middle" x="1160" y="-1177.8" font-family="Times,serif" font-size="9.00"> &#160;&#160;%12 = getelementptr inbounds [20 x i8], ptr %5, i32 0, i32 19, !dbg !3281 &#160;&quot;ln&quot;: 64, &quot;cl&quot;: 5, &quot;fl&quot;: &quot;../../sdemoservice/src/i_sdemo_service.cpp&quot; </text>
</g>
<!-- var_94840692714416&#45;&gt;stmt_94840692848944 -->
<g id="edge4" class="edge">
<title>var_94840692714416&#45;&gt;stmt_94840692848944</title>
<path fill="none" stroke="red" d="M1264.34,-1152.64C1347.81,-1123.56 1464.05,-1083.05 1546.06,-1054.48"/>
<polygon fill="red" stroke="red" points="1547.6,-1057.65 1555.89,-1051.05 1545.29,-1051.04 1547.6,-1057.65"/>
<text text-anchor="middle" x="1443" y="-1096.6" font-family="Times,serif" font-size="8.00">input</text>
</g>
<!-- stmt_94840692712592 -->
<g id="node8" class="node">
<title>stmt_94840692712592</title>
<path fill="lightcoral" stroke="black" d="M1522,-1513C1522,-1513 798,-1513 798,-1513 792,-1513 786,-1507 786,-1501 786,-1501 786,-1341 786,-1341 786,-1335 792,-1329 798,-1329 798,-1329 1522,-1329 1522,-1329 1528,-1329 1534,-1335 1534,-1341 1534,-1341 1534,-1501 1534,-1501 1534,-1507 1528,-1513 1522,-1513"/>
<text text-anchor="middle" x="1160" y="-1498.8" font-family="Times,serif" font-size="9.00">Stmt[987]</text>
<text text-anchor="middle" x="1160" y="-1488.8" font-family="Times,serif" font-size="9.00">CallICFGNode987 fun: _Z27innerTureIllegalInforFlow_ci &quot;ln&quot;: 63, &quot;cl&quot;: 5, &quot;fl&quot;: &quot;../../sdemoservice/src/i_sdemo_service.cpp&quot; </text>
<text text-anchor="middle" x="1160" y="-1478.8" font-family="Times,serif" font-size="9.00">GepStmt: [Var6910 &lt;&#45;&#45; Var874]t</text>
<text text-anchor="middle" x="1160" y="-1468.8" font-family="Times,serif" font-size="9.00">ValVar ID: 876</text>
<text text-anchor="middle" x="1160" y="-1458.8" font-family="Times,serif" font-size="9.00"> &#160;&#160;%11 = call ptr @strncpy(ptr noundef %9, ptr noundef %10, i32 noundef 19), !dbg !3280 &#160;&quot;ln&quot;: 63, &quot;cl&quot;: 5, &quot;fl&quot;: &quot;../../sdemoservice/src/i_sdemo_service.cpp&quot; </text>
<text text-anchor="middle" x="1160" y="-1448.8" font-family="Times,serif" font-size="9.00">GepStmt: [Var6911 &lt;&#45;&#45; Var875]t</text>
<text text-anchor="middle" x="1160" y="-1438.8" font-family="Times,serif" font-size="9.00">ValVar ID: 876</text>
<text text-anchor="middle" x="1160" y="-1428.8" font-family="Times,serif" font-size="9.00"> &#160;&#160;%11 = call ptr @strncpy(ptr noundef %9, ptr noundef %10, i32 noundef 19), !dbg !3280 &#160;&quot;ln&quot;: 63, &quot;cl&quot;: 5, &quot;fl&quot;: &quot;../../sdemoservice/src/i_sdemo_service.cpp&quot; </text>
<text text-anchor="middle" x="1160" y="-1418.8" font-family="Times,serif" font-size="9.00">LoadStmt: [Var6912 &lt;&#45;&#45; Var6911]t</text>
<text text-anchor="middle" x="1160" y="-1408.8" font-family="Times,serif" font-size="9.00">ValVar ID: 876</text>
<text text-anchor="middle" x="1160" y="-1398.8" font-family="Times,serif" font-size="9.00"> &#160;&#160;%11 = call ptr @strncpy(ptr noundef %9, ptr noundef %10, i32 noundef 19), !dbg !3280 &#160;&quot;ln&quot;: 63, &quot;cl&quot;: 5, &quot;fl&quot;: &quot;../../sdemoservice/src/i_sdemo_service.cpp&quot; </text>
<text text-anchor="middle" x="1160" y="-1388.8" font-family="Times,serif" font-size="9.00">StoreStmt: [Var6910 &lt;&#45;&#45; Var6912]t</text>
<text text-anchor="middle" x="1160" y="-1378.8" font-family="Times,serif" font-size="9.00">ValVar ID: 876</text>
<text text-anchor="middle" x="1160" y="-1368.8" font-family="Times,serif" font-size="9.00"> &#160;&#160;%11 = call ptr @strncpy(ptr noundef %9, ptr noundef %10, i32 noundef 19), !dbg !3280 &#160;&quot;ln&quot;: 63, &quot;cl&quot;: 5, &quot;fl&quot;: &quot;../../sdemoservice/src/i_sdemo_service.cpp&quot; </text>
<text text-anchor="middle" x="1160" y="-1358.8" font-family="Times,serif" font-size="9.00">CopyStmt: [Var876 &lt;&#45;&#45; Var874]t</text>
<text text-anchor="middle" x="1160" y="-1348.8" font-family="Times,serif" font-size="9.00">ValVar ID: 876</text>
<text text-anchor="middle" x="1160" y="-1338.8" font-family="Times,serif" font-size="9.00"> &#160;&#160;%11 = call ptr @strncpy(ptr noundef %9, ptr noundef %10, i32 noundef 19), !dbg !3280 &#160;&quot;ln&quot;: 63, &quot;cl&quot;: 5, &quot;fl&quot;: &quot;../../sdemoservice/src/i_sdemo_service.cpp&quot; </text>
</g>
<!-- stmt_94840692712592&#45;&gt;var_94840692714416 -->
<g id="edge3" class="edge">
<title>stmt_94840692712592&#45;&gt;var_94840692714416</title>
<path fill="none" stroke="blue" d="M1160,-1328.84C1160,-1300.11 1160,-1269.35 1160,-1244.18"/>
<polygon fill="blue" stroke="blue" points="1163.5,-1244.12 1160,-1234.12 1156.5,-1244.12 1163.5,-1244.12"/>
<text text-anchor="middle" x="1174.5" y="-1279.6" font-family="Times,serif" font-size="8.00">defines</text>
</g>
<!-- var_94840692712736 -->
<g id="node9" class="node">
<title>var_94840692712736</title>
<polygon fill="lightblue" stroke="black" stroke-width="2" points="679,-1696 0,-1652 679,-1608 1358,-1652 679,-1696"/>
<text text-anchor="middle" x="679" y="-1659.8" font-family="Times,serif" font-size="9.00">Ptr</text>
<text text-anchor="middle" x="679" y="-1649.8" font-family="Times,serif" font-size="9.00">PointedVarNode: ValVar ID: 874</text>
<text text-anchor="middle" x="679" y="-1639.8" font-family="Times,serif" font-size="9.00"> &#160;&#160;%9 = getelementptr inbounds [20 x i8], ptr %5, i32 0, i32 0, !dbg !3278 &#160;&quot;ln&quot;: 63, &quot;cl&quot;: 13, &quot;fl&quot;: &quot;../../sdemoservice/src/i_sdemo_service.cpp&quot; </text>
</g>
<!-- var_94840692712736&#45;&gt;stmt_94840692712592 -->
<g id="edge1" class="edge">
<title>var_94840692712736&#45;&gt;stmt_94840692712592</title>
<path fill="none" stroke="red" d="M758.7,-1613.06C813.55,-1586.94 889.01,-1551.02 959.69,-1517.36"/>
<polygon fill="red" stroke="red" points="961.21,-1520.52 968.73,-1513.06 958.2,-1514.2 961.21,-1520.52"/>
<text text-anchor="middle" x="888" y="-1558.6" font-family="Times,serif" font-size="8.00">input</text>
</g>
<!-- var_94840692713056 -->
<g id="node10" class="node">
<title>var_94840692713056</title>
<polygon fill="lightblue" stroke="black" stroke-width="2" points="1642,-1686 1416,-1652 1642,-1618 1868,-1652 1642,-1686"/>
<text text-anchor="middle" x="1642" y="-1654.8" font-family="Times,serif" font-size="9.00">Ptr</text>
<text text-anchor="middle" x="1642" y="-1644.8" font-family="Times,serif" font-size="9.00">PointedVarNode: ConstVarNode(Str: /etc/\00)</text>
</g>
<!-- var_94840692713056&#45;&gt;stmt_94840692712592 -->
<g id="edge2" class="edge">
<title>var_94840692713056&#45;&gt;stmt_94840692712592</title>
<path fill="none" stroke="red" d="M1589.04,-1625.84C1533.88,-1599.63 1444.07,-1556.96 1360.84,-1517.42"/>
<polygon fill="red" stroke="red" points="1362.3,-1514.24 1351.77,-1513.11 1359.3,-1520.56 1362.3,-1514.24"/>
<text text-anchor="middle" x="1470" y="-1558.6" font-family="Times,serif" font-size="8.00">input</text>
</g>
<!-- var_94840692848832 -->
<g id="node11" class="node">
<title>var_94840692848832</title>
<polygon fill="lightblue" stroke="black" stroke-width="2" points="2131,-1234 1903,-1190 2131,-1146 2359,-1190 2131,-1234"/>
<text text-anchor="middle" x="2131" y="-1197.8" font-family="Times,serif" font-size="9.00">Ptr</text>
<text text-anchor="middle" x="2131" y="-1187.8" font-family="Times,serif" font-size="9.00">PointedVarNode: ConstantIntValNode ID: 135</text>
<text text-anchor="middle" x="2131" y="-1177.8" font-family="Times,serif" font-size="9.00"> i8 0 &#160;constant data </text>
</g>
<!-- var_94840692848832&#45;&gt;stmt_94840692848944 -->
<g id="edge5" class="edge">
<title>var_94840692848832&#45;&gt;stmt_94840692848944</title>
<path fill="none" stroke="red" d="M2051.29,-1161.28C1967.15,-1132.02 1834.4,-1085.86 1743.71,-1054.32"/>
<polygon fill="red" stroke="red" points="1744.83,-1051.01 1734.24,-1051.03 1742.53,-1057.62 1744.83,-1051.01"/>
<text text-anchor="middle" x="1885" y="-1096.6" font-family="Times,serif" font-size="8.00">input</text>
</g>
<!-- var_94840692888880 -->
<g id="node12" class="node">
<title>var_94840692888880</title>
<polygon fill="lightblue" stroke="black" stroke-width="2" points="2588,-882 2348,-848 2588,-814 2828,-848 2588,-882"/>
<text text-anchor="middle" x="2588" y="-850.8" font-family="Times,serif" font-size="9.00">Ptr</text>
<text text-anchor="middle" x="2588" y="-840.8" font-family="Times,serif" font-size="9.00">PointedVarNode: ConstVarNode(Str: shadow\00)</text>
</g>
<!-- var_94840692888880&#45;&gt;stmt_94840692778112 -->
<g id="edge8" class="edge">
<title>var_94840692888880&#45;&gt;stmt_94840692778112</title>
<path fill="none" stroke="red" d="M2535.23,-821.4C2481.2,-795.18 2393.9,-752.83 2312.92,-713.54"/>
<polygon fill="red" stroke="red" points="2314.11,-710.23 2303.59,-709.01 2311.06,-716.53 2314.11,-710.23"/>
<text text-anchor="middle" x="2420" y="-754.6" font-family="Times,serif" font-size="8.00">input</text>
</g>
<!-- var_94840647062320 -->
<g id="node13" class="node">
<title>var_94840647062320</title>
<polygon fill="lightblue" stroke="black" stroke-width="2" points="3087,-430 2859,-386 3087,-342 3315,-386 3087,-430"/>
<text text-anchor="middle" x="3087" y="-393.8" font-family="Times,serif" font-size="9.00">Ptr</text>
<text text-anchor="middle" x="3087" y="-383.8" font-family="Times,serif" font-size="9.00">PointedVarNode: ConstantIntValNode ID: 135</text>
<text text-anchor="middle" x="3087" y="-373.8" font-family="Times,serif" font-size="9.00"> i8 0 &#160;constant data </text>
</g>
<!-- var_94840647062320&#45;&gt;stmt_94840692778704 -->
<g id="edge11" class="edge">
<title>var_94840647062320&#45;&gt;stmt_94840692778704</title>
<path fill="none" stroke="red" d="M3007.29,-357.28C2923.15,-328.02 2790.4,-281.86 2699.71,-250.32"/>
<polygon fill="red" stroke="red" points="2700.83,-247.01 2690.24,-247.03 2698.53,-253.62 2700.83,-247.01"/>
<text text-anchor="middle" x="2841" y="-292.6" font-family="Times,serif" font-size="8.00">input</text>
</g>
</g>
</svg>
