<?xml version="1.0" encoding="UTF-8" standalone="no"?>
<!DOCTYPE svg PUBLIC "-//W3C//DTD SVG 1.1//EN"
 "http://www.w3.org/Graphics/SVG/1.1/DTD/svg11.dtd">
<!-- Generated by graphviz version 2.43.0 (0)
 -->
<!-- Title: VarsBuildingTree Pages: 1 -->
<svg width="3818pt" height="1273pt"
 viewBox="0.00 0.00 3817.50 1273.00" xmlns="http://www.w3.org/2000/svg" xmlns:xlink="http://www.w3.org/1999/xlink">
<g id="graph0" class="graph" transform="scale(1 1) rotate(0) translate(4 1269)">
<title>VarsBuildingTree</title>
<polygon fill="white" stroke="transparent" points="-4,4 -4,-1269 3813.5,-1269 3813.5,4 -4,4"/>
<text text-anchor="middle" x="1904.75" y="-1251.4" font-family="Times,serif" font-size="12.00">VarsBuildingTree Visualization</text>
<!-- var_94840692746416 -->
<g id="node1" class="node">
<title>var_94840692746416</title>
<polygon fill="lightblue" stroke="black" stroke-width="2" points="2560.5,-88 2024.5,-44 2560.5,0 3096.5,-44 2560.5,-88"/>
<text text-anchor="middle" x="2560.5" y="-51.8" font-family="Times,serif" font-size="9.00">Ptr</text>
<text text-anchor="middle" x="2560.5" y="-41.8" font-family="Times,serif" font-size="9.00">PointedVarNode: ValVar ID: 121</text>
<text text-anchor="middle" x="2560.5" y="-31.8" font-family="Times,serif" font-size="9.00"> &#160;&#160;%6 = alloca %&quot;class.std::__h::basic_string&quot;, align 4 &#160;&quot;ln&quot;: 13, &quot;fl&quot;: &quot;../../sdemoservice/src/i_sdemo_service.cpp&quot; </text>
</g>
<!-- stmt_94840692744528 -->
<g id="node2" class="node">
<title>stmt_94840692744528</title>
<path fill="lightcoral" stroke="black" d="M3405,-307C3405,-307 1716,-307 1716,-307 1710,-307 1704,-301 1704,-295 1704,-295 1704,-195 1704,-195 1704,-189 1710,-183 1716,-183 1716,-183 3405,-183 3405,-183 3411,-183 3417,-189 3417,-195 3417,-195 3417,-295 3417,-295 3417,-301 3411,-307 3405,-307"/>
<text text-anchor="middle" x="2560.5" y="-292.8" font-family="Times,serif" font-size="9.00">Stmt[465]</text>
<text text-anchor="middle" x="2560.5" y="-282.8" font-family="Times,serif" font-size="9.00">CallICFGNode465 fun: _Z25innerTureIllegalInforFlowi &quot;ln&quot;: 13, &quot;cl&quot;: 41, &quot;fl&quot;: &quot;../../sdemoservice/src/i_sdemo_service.cpp&quot; </text>
<text text-anchor="middle" x="2560.5" y="-272.8" font-family="Times,serif" font-size="9.00">CallPE: [Var274 &lt;&#45;&#45; Var121]t</text>
<text text-anchor="middle" x="2560.5" y="-262.8" font-family="Times,serif" font-size="9.00">ValVar ID: 154</text>
<text text-anchor="middle" x="2560.5" y="-252.8" font-family="Times,serif" font-size="9.00"> &#160;&#160;call void @_ZNSt3__hplB6v15004IcNS_11char_traitsIcEENS_9allocatorIcEEEENS_12basic_stringIT_T0_T1_EEOS9_RKS9_(ptr sret(%&quot;class.std::__h::basic_string&quot;) align 4 %6, ptr noundef nonnull align 4 dereferenceable(12) %7, ptr noundef nonnull align 4 dereferenceable(12) %5), !dbg !3281 &#160;&quot;ln&quot;: 13, &quot;cl&quot;: 41, &quot;fl&quot;: &quot;../../sdemoservice/src/i_sdemo_service.cpp&quot; </text>
<text text-anchor="middle" x="2560.5" y="-242.8" font-family="Times,serif" font-size="9.00">CallPE: [Var275 &lt;&#45;&#45; Var123]t</text>
<text text-anchor="middle" x="2560.5" y="-232.8" font-family="Times,serif" font-size="9.00">ValVar ID: 154</text>
<text text-anchor="middle" x="2560.5" y="-222.8" font-family="Times,serif" font-size="9.00"> &#160;&#160;call void @_ZNSt3__hplB6v15004IcNS_11char_traitsIcEENS_9allocatorIcEEEENS_12basic_stringIT_T0_T1_EEOS9_RKS9_(ptr sret(%&quot;class.std::__h::basic_string&quot;) align 4 %6, ptr noundef nonnull align 4 dereferenceable(12) %7, ptr noundef nonnull align 4 dereferenceable(12) %5), !dbg !3281 &#160;&quot;ln&quot;: 13, &quot;cl&quot;: 41, &quot;fl&quot;: &quot;../../sdemoservice/src/i_sdemo_service.cpp&quot; </text>
<text text-anchor="middle" x="2560.5" y="-212.8" font-family="Times,serif" font-size="9.00">CallPE: [Var276 &lt;&#45;&#45; Var119]t</text>
<text text-anchor="middle" x="2560.5" y="-202.8" font-family="Times,serif" font-size="9.00">ValVar ID: 154</text>
<text text-anchor="middle" x="2560.5" y="-192.8" font-family="Times,serif" font-size="9.00"> &#160;&#160;call void @_ZNSt3__hplB6v15004IcNS_11char_traitsIcEENS_9allocatorIcEEEENS_12basic_stringIT_T0_T1_EEOS9_RKS9_(ptr sret(%&quot;class.std::__h::basic_string&quot;) align 4 %6, ptr noundef nonnull align 4 dereferenceable(12) %7, ptr noundef nonnull align 4 dereferenceable(12) %5), !dbg !3281 &#160;&quot;ln&quot;: 13, &quot;cl&quot;: 41, &quot;fl&quot;: &quot;../../sdemoservice/src/i_sdemo_service.cpp&quot; </text>
</g>
<!-- stmt_94840692744528&#45;&gt;var_94840692746416 -->
<g id="edge12" class="edge">
<title>stmt_94840692744528&#45;&gt;var_94840692746416</title>
<path fill="none" stroke="blue" d="M2560.5,-182.94C2560.5,-155.91 2560.5,-124.41 2560.5,-98.33"/>
<polygon fill="blue" stroke="blue" points="2564,-98.26 2560.5,-88.26 2557,-98.26 2564,-98.26"/>
<text text-anchor="middle" x="2575" y="-133.6" font-family="Times,serif" font-size="8.00">defines</text>
</g>
<!-- var_94840692777840 -->
<g id="node3" class="node">
<title>var_94840692777840</title>
<polygon fill="lightblue" stroke="black" stroke-width="2" points="2132.5,-490 1869.5,-446 2132.5,-402 2395.5,-446 2132.5,-490"/>
<text text-anchor="middle" x="2132.5" y="-453.8" font-family="Times,serif" font-size="9.00">Ptr</text>
<text text-anchor="middle" x="2132.5" y="-443.8" font-family="Times,serif" font-size="9.00">PointedVarNode: ValVar ID: 123</text>
<text text-anchor="middle" x="2132.5" y="-433.8" font-family="Times,serif" font-size="9.00"> &#160;&#160;%7 = alloca %&quot;class.std::__h::basic_string&quot;, align 4 </text>
</g>
<!-- var_94840692777840&#45;&gt;stmt_94840692744528 -->
<g id="edge8" class="edge">
<title>var_94840692777840&#45;&gt;stmt_94840692744528</title>
<path fill="none" stroke="red" d="M2200.79,-413.25C2259.52,-385.94 2346.14,-345.67 2419.66,-311.48"/>
<polygon fill="red" stroke="red" points="2421.43,-314.52 2429.02,-307.13 2418.48,-308.17 2421.43,-314.52"/>
<text text-anchor="middle" x="2345.5" y="-352.6" font-family="Times,serif" font-size="8.00">input</text>
</g>
<!-- stmt_94840692710144 -->
<g id="node4" class="node">
<title>stmt_94840692710144</title>
<path fill="lightcoral" stroke="black" d="M2440,-709C2440,-709 805,-709 805,-709 799,-709 793,-703 793,-697 793,-697 793,-597 793,-597 793,-591 799,-585 805,-585 805,-585 2440,-585 2440,-585 2446,-585 2452,-591 2452,-597 2452,-597 2452,-697 2452,-697 2452,-703 2446,-709 2440,-709"/>
<text text-anchor="middle" x="1622.5" y="-694.8" font-family="Times,serif" font-size="9.00">Stmt[463]</text>
<text text-anchor="middle" x="1622.5" y="-684.8" font-family="Times,serif" font-size="9.00">CallICFGNode463 fun: _Z25innerTureIllegalInforFlowi &quot;ln&quot;: 13, &quot;cl&quot;: 34, &quot;fl&quot;: &quot;../../sdemoservice/src/i_sdemo_service.cpp&quot; </text>
<text text-anchor="middle" x="1622.5" y="-674.8" font-family="Times,serif" font-size="9.00">CallPE: [Var298 &lt;&#45;&#45; Var123]t</text>
<text text-anchor="middle" x="1622.5" y="-664.8" font-family="Times,serif" font-size="9.00">ValVar ID: 151</text>
<text text-anchor="middle" x="1622.5" y="-654.8" font-family="Times,serif" font-size="9.00"> &#160;&#160;call void @_ZNSt3__hplIcNS_11char_traitsIcEENS_9allocatorIcEEEENS_12basic_stringIT_T0_T1_EERKS9_SB_(ptr sret(%&quot;class.std::__h::basic_string&quot;) align 4 %7, ptr noundef nonnull align 4 dereferenceable(12) %3, ptr noundef nonnull align 4 dereferenceable(12) %4), !dbg !3280 &#160;&quot;ln&quot;: 13, &quot;cl&quot;: 34, &quot;fl&quot;: &quot;../../sdemoservice/src/i_sdemo_service.cpp&quot; </text>
<text text-anchor="middle" x="1622.5" y="-644.8" font-family="Times,serif" font-size="9.00">CallPE: [Var299 &lt;&#45;&#45; Var115]t</text>
<text text-anchor="middle" x="1622.5" y="-634.8" font-family="Times,serif" font-size="9.00">ValVar ID: 151</text>
<text text-anchor="middle" x="1622.5" y="-624.8" font-family="Times,serif" font-size="9.00"> &#160;&#160;call void @_ZNSt3__hplIcNS_11char_traitsIcEENS_9allocatorIcEEEENS_12basic_stringIT_T0_T1_EERKS9_SB_(ptr sret(%&quot;class.std::__h::basic_string&quot;) align 4 %7, ptr noundef nonnull align 4 dereferenceable(12) %3, ptr noundef nonnull align 4 dereferenceable(12) %4), !dbg !3280 &#160;&quot;ln&quot;: 13, &quot;cl&quot;: 34, &quot;fl&quot;: &quot;../../sdemoservice/src/i_sdemo_service.cpp&quot; </text>
<text text-anchor="middle" x="1622.5" y="-614.8" font-family="Times,serif" font-size="9.00">CallPE: [Var300 &lt;&#45;&#45; Var117]t</text>
<text text-anchor="middle" x="1622.5" y="-604.8" font-family="Times,serif" font-size="9.00">ValVar ID: 151</text>
<text text-anchor="middle" x="1622.5" y="-594.8" font-family="Times,serif" font-size="9.00"> &#160;&#160;call void @_ZNSt3__hplIcNS_11char_traitsIcEENS_9allocatorIcEEEENS_12basic_stringIT_T0_T1_EERKS9_SB_(ptr sret(%&quot;class.std::__h::basic_string&quot;) align 4 %7, ptr noundef nonnull align 4 dereferenceable(12) %3, ptr noundef nonnull align 4 dereferenceable(12) %4), !dbg !3280 &#160;&quot;ln&quot;: 13, &quot;cl&quot;: 34, &quot;fl&quot;: &quot;../../sdemoservice/src/i_sdemo_service.cpp&quot; </text>
</g>
<!-- stmt_94840692710144&#45;&gt;var_94840692777840 -->
<g id="edge7" class="edge">
<title>stmt_94840692710144&#45;&gt;var_94840692777840</title>
<path fill="none" stroke="blue" d="M1778.98,-584.94C1866.69,-550.72 1972.78,-509.32 2045.72,-480.86"/>
<polygon fill="blue" stroke="blue" points="2047.29,-484.01 2055.34,-477.11 2044.75,-477.48 2047.29,-484.01"/>
<text text-anchor="middle" x="1923" y="-535.6" font-family="Times,serif" font-size="8.00">defines</text>
</g>
<!-- var_94840692845136 -->
<g id="node5" class="node">
<title>var_94840692845136</title>
<polygon fill="lightblue" stroke="black" stroke-width="2" points="814.5,-892 278.5,-848 814.5,-804 1350.5,-848 814.5,-892"/>
<text text-anchor="middle" x="814.5" y="-855.8" font-family="Times,serif" font-size="9.00">Ptr</text>
<text text-anchor="middle" x="814.5" y="-845.8" font-family="Times,serif" font-size="9.00">PointedVarNode: ValVar ID: 115</text>
<text text-anchor="middle" x="814.5" y="-835.8" font-family="Times,serif" font-size="9.00"> &#160;&#160;%3 = alloca %&quot;class.std::__h::basic_string&quot;, align 4 &#160;&quot;ln&quot;: 10, &quot;fl&quot;: &quot;../../sdemoservice/src/i_sdemo_service.cpp&quot; </text>
</g>
<!-- var_94840692845136&#45;&gt;stmt_94840692710144 -->
<g id="edge3" class="edge">
<title>var_94840692845136&#45;&gt;stmt_94840692710144</title>
<path fill="none" stroke="red" d="M945.67,-814.7C1058.6,-786.88 1224.91,-745.92 1364.42,-711.56"/>
<polygon fill="red" stroke="red" points="1365.54,-714.89 1374.41,-709.1 1363.87,-708.09 1365.54,-714.89"/>
<text text-anchor="middle" x="1205.5" y="-754.6" font-family="Times,serif" font-size="8.00">input</text>
</g>
<!-- stmt_94840692789408 -->
<g id="node6" class="node">
<title>stmt_94840692789408</title>
<path fill="lightcoral" stroke="black" d="M1281,-1081C1281,-1081 12,-1081 12,-1081 6,-1081 0,-1075 0,-1069 0,-1069 0,-999 0,-999 0,-993 6,-987 12,-987 12,-987 1281,-987 1281,-987 1287,-987 1293,-993 1293,-999 1293,-999 1293,-1069 1293,-1069 1293,-1075 1287,-1081 1281,-1081"/>
<text text-anchor="middle" x="646.5" y="-1066.8" font-family="Times,serif" font-size="9.00">Stmt[451]</text>
<text text-anchor="middle" x="646.5" y="-1056.8" font-family="Times,serif" font-size="9.00">CallICFGNode451 fun: _Z25innerTureIllegalInforFlowi &quot;ln&quot;: 10, &quot;cl&quot;: 24, &quot;fl&quot;: &quot;../../sdemoservice/src/i_sdemo_service.cpp&quot; </text>
<text text-anchor="middle" x="646.5" y="-1046.8" font-family="Times,serif" font-size="9.00">CallPE: [Var237 &lt;&#45;&#45; Var115]t</text>
<text text-anchor="middle" x="646.5" y="-1036.8" font-family="Times,serif" font-size="9.00">ValVar ID: 140</text>
<text text-anchor="middle" x="646.5" y="-1026.8" font-family="Times,serif" font-size="9.00"> &#160;&#160;%11 = call noundef ptr @_ZNSt3__h12basic_stringIcNS_11char_traitsIcEENS_9allocatorIcEEEC2B6v15004IDnEEPKc(ptr noundef nonnull align 4 dereferenceable(12) %3, ptr noundef @.str), !dbg !3271 &#160;&quot;ln&quot;: 10, &quot;cl&quot;: 24, &quot;fl&quot;: &quot;../../sdemoservice/src/i_sdemo_service.cpp&quot; </text>
<text text-anchor="middle" x="646.5" y="-1016.8" font-family="Times,serif" font-size="9.00">CallPE: [Var238 &lt;&#45;&#45; Var4]t</text>
<text text-anchor="middle" x="646.5" y="-1006.8" font-family="Times,serif" font-size="9.00">ValVar ID: 140</text>
<text text-anchor="middle" x="646.5" y="-996.8" font-family="Times,serif" font-size="9.00"> &#160;&#160;%11 = call noundef ptr @_ZNSt3__h12basic_stringIcNS_11char_traitsIcEENS_9allocatorIcEEEC2B6v15004IDnEEPKc(ptr noundef nonnull align 4 dereferenceable(12) %3, ptr noundef @.str), !dbg !3271 &#160;&quot;ln&quot;: 10, &quot;cl&quot;: 24, &quot;fl&quot;: &quot;../../sdemoservice/src/i_sdemo_service.cpp&quot; </text>
</g>
<!-- stmt_94840692789408&#45;&gt;var_94840692845136 -->
<g id="edge2" class="edge">
<title>stmt_94840692789408&#45;&gt;var_94840692845136</title>
<path fill="none" stroke="blue" d="M688.89,-986.57C713.95,-959.13 745.61,-924.45 770.88,-896.77"/>
<polygon fill="blue" stroke="blue" points="773.67,-898.91 777.83,-889.17 768.5,-894.19 773.67,-898.91"/>
<text text-anchor="middle" x="751" y="-937.6" font-family="Times,serif" font-size="8.00">defines</text>
</g>
<!-- var_94840692787376 -->
<g id="node7" class="node">
<title>var_94840692787376</title>
<polygon fill="lightblue" stroke="black" stroke-width="2" points="646.5,-1244 437.5,-1210 646.5,-1176 855.5,-1210 646.5,-1244"/>
<text text-anchor="middle" x="646.5" y="-1212.8" font-family="Times,serif" font-size="9.00">Ptr</text>
<text text-anchor="middle" x="646.5" y="-1202.8" font-family="Times,serif" font-size="9.00">PointedVarNode: ConstVarNode(Str: /\00)</text>
</g>
<!-- var_94840692787376&#45;&gt;stmt_94840692789408 -->
<g id="edge1" class="edge">
<title>var_94840692787376&#45;&gt;stmt_94840692789408</title>
<path fill="none" stroke="red" d="M646.5,-1175.86C646.5,-1151.98 646.5,-1119.16 646.5,-1091.21"/>
<polygon fill="red" stroke="red" points="650,-1091.16 646.5,-1081.16 643,-1091.16 650,-1091.16"/>
<text text-anchor="middle" x="657.5" y="-1126.6" font-family="Times,serif" font-size="8.00">input</text>
</g>
<!-- var_94840692845248 -->
<g id="node8" class="node">
<title>var_94840692845248</title>
<polygon fill="lightblue" stroke="black" stroke-width="2" points="1972.5,-892 1436.5,-848 1972.5,-804 2508.5,-848 1972.5,-892"/>
<text text-anchor="middle" x="1972.5" y="-855.8" font-family="Times,serif" font-size="9.00">Ptr</text>
<text text-anchor="middle" x="1972.5" y="-845.8" font-family="Times,serif" font-size="9.00">PointedVarNode: ValVar ID: 117</text>
<text text-anchor="middle" x="1972.5" y="-835.8" font-family="Times,serif" font-size="9.00"> &#160;&#160;%4 = alloca %&quot;class.std::__h::basic_string&quot;, align 4 &#160;&quot;ln&quot;: 11, &quot;fl&quot;: &quot;../../sdemoservice/src/i_sdemo_service.cpp&quot; </text>
</g>
<!-- var_94840692845248&#45;&gt;stmt_94840692710144 -->
<g id="edge6" class="edge">
<title>var_94840692845248&#45;&gt;stmt_94840692710144</title>
<path fill="none" stroke="red" d="M1906.26,-809.34C1859.13,-782.54 1794.58,-745.84 1738.95,-714.21"/>
<polygon fill="red" stroke="red" points="1740.52,-711.08 1730.1,-709.18 1737.06,-717.16 1740.52,-711.08"/>
<text text-anchor="middle" x="1829.5" y="-754.6" font-family="Times,serif" font-size="8.00">input</text>
</g>
<!-- stmt_94840692783744 -->
<g id="node9" class="node">
<title>stmt_94840692783744</title>
<path fill="lightcoral" stroke="black" d="M2639.5,-1081C2639.5,-1081 1363.5,-1081 1363.5,-1081 1357.5,-1081 1351.5,-1075 1351.5,-1069 1351.5,-1069 1351.5,-999 1351.5,-999 1351.5,-993 1357.5,-987 1363.5,-987 1363.5,-987 2639.5,-987 2639.5,-987 2645.5,-987 2651.5,-993 2651.5,-999 2651.5,-999 2651.5,-1069 2651.5,-1069 2651.5,-1075 2645.5,-1081 2639.5,-1081"/>
<text text-anchor="middle" x="2001.5" y="-1066.8" font-family="Times,serif" font-size="9.00">Stmt[455]</text>
<text text-anchor="middle" x="2001.5" y="-1056.8" font-family="Times,serif" font-size="9.00">CallICFGNode455 fun: _Z25innerTureIllegalInforFlowi &quot;ln&quot;: 11, &quot;cl&quot;: 24, &quot;fl&quot;: &quot;../../sdemoservice/src/i_sdemo_service.cpp&quot; </text>
<text text-anchor="middle" x="2001.5" y="-1046.8" font-family="Times,serif" font-size="9.00">CallPE: [Var237 &lt;&#45;&#45; Var117]t</text>
<text text-anchor="middle" x="2001.5" y="-1036.8" font-family="Times,serif" font-size="9.00">ValVar ID: 145</text>
<text text-anchor="middle" x="2001.5" y="-1026.8" font-family="Times,serif" font-size="9.00"> &#160;&#160;%12 = call noundef ptr @_ZNSt3__h12basic_stringIcNS_11char_traitsIcEENS_9allocatorIcEEEC2B6v15004IDnEEPKc(ptr noundef nonnull align 4 dereferenceable(12) %4, ptr noundef @.str.1), !dbg !3274 &#160;&quot;ln&quot;: 11, &quot;cl&quot;: 24, &quot;fl&quot;: &quot;../../sdemoservice/src/i_sdemo_service.cpp&quot; </text>
<text text-anchor="middle" x="2001.5" y="-1016.8" font-family="Times,serif" font-size="9.00">CallPE: [Var238 &lt;&#45;&#45; Var5]t</text>
<text text-anchor="middle" x="2001.5" y="-1006.8" font-family="Times,serif" font-size="9.00">ValVar ID: 145</text>
<text text-anchor="middle" x="2001.5" y="-996.8" font-family="Times,serif" font-size="9.00"> &#160;&#160;%12 = call noundef ptr @_ZNSt3__h12basic_stringIcNS_11char_traitsIcEENS_9allocatorIcEEEC2B6v15004IDnEEPKc(ptr noundef nonnull align 4 dereferenceable(12) %4, ptr noundef @.str.1), !dbg !3274 &#160;&quot;ln&quot;: 11, &quot;cl&quot;: 24, &quot;fl&quot;: &quot;../../sdemoservice/src/i_sdemo_service.cpp&quot; </text>
</g>
<!-- stmt_94840692783744&#45;&gt;var_94840692845248 -->
<g id="edge5" class="edge">
<title>stmt_94840692783744&#45;&gt;var_94840692845248</title>
<path fill="none" stroke="blue" d="M1994.18,-986.57C1990.11,-960.7 1985.02,-928.41 1980.79,-901.61"/>
<polygon fill="blue" stroke="blue" points="1984.23,-900.97 1979.22,-891.63 1977.32,-902.06 1984.23,-900.97"/>
<text text-anchor="middle" x="2002" y="-937.6" font-family="Times,serif" font-size="8.00">defines</text>
</g>
<!-- var_94840692783472 -->
<g id="node10" class="node">
<title>var_94840692783472</title>
<polygon fill="lightblue" stroke="black" stroke-width="2" points="2001.5,-1244 1778.5,-1210 2001.5,-1176 2224.5,-1210 2001.5,-1244"/>
<text text-anchor="middle" x="2001.5" y="-1212.8" font-family="Times,serif" font-size="9.00">Ptr</text>
<text text-anchor="middle" x="2001.5" y="-1202.8" font-family="Times,serif" font-size="9.00">PointedVarNode: ConstVarNode(Str: etc/\00)</text>
</g>
<!-- var_94840692783472&#45;&gt;stmt_94840692783744 -->
<g id="edge4" class="edge">
<title>var_94840692783472&#45;&gt;stmt_94840692783744</title>
<path fill="none" stroke="red" d="M2001.5,-1175.86C2001.5,-1151.98 2001.5,-1119.16 2001.5,-1091.21"/>
<polygon fill="red" stroke="red" points="2005,-1091.16 2001.5,-1081.16 1998,-1091.16 2005,-1091.16"/>
<text text-anchor="middle" x="2012.5" y="-1126.6" font-family="Times,serif" font-size="8.00">input</text>
</g>
<!-- var_94840692847376 -->
<g id="node11" class="node">
<title>var_94840692847376</title>
<polygon fill="lightblue" stroke="black" stroke-width="2" points="3074.5,-490 2538.5,-446 3074.5,-402 3610.5,-446 3074.5,-490"/>
<text text-anchor="middle" x="3074.5" y="-453.8" font-family="Times,serif" font-size="9.00">Ptr</text>
<text text-anchor="middle" x="3074.5" y="-443.8" font-family="Times,serif" font-size="9.00">PointedVarNode: ValVar ID: 119</text>
<text text-anchor="middle" x="3074.5" y="-433.8" font-family="Times,serif" font-size="9.00"> &#160;&#160;%5 = alloca %&quot;class.std::__h::basic_string&quot;, align 4 &#160;&quot;ln&quot;: 12, &quot;fl&quot;: &quot;../../sdemoservice/src/i_sdemo_service.cpp&quot; </text>
</g>
<!-- var_94840692847376&#45;&gt;stmt_94840692744528 -->
<g id="edge11" class="edge">
<title>var_94840692847376&#45;&gt;stmt_94840692744528</title>
<path fill="none" stroke="red" d="M2982.61,-409.42C2911.91,-382.05 2812.31,-343.49 2727.62,-310.7"/>
<polygon fill="red" stroke="red" points="2728.74,-307.38 2718.16,-307.04 2726.22,-313.91 2728.74,-307.38"/>
<text text-anchor="middle" x="2859.5" y="-352.6" font-family="Times,serif" font-size="8.00">input</text>
</g>
<!-- stmt_94840692714096 -->
<g id="node12" class="node">
<title>stmt_94840692714096</title>
<path fill="lightcoral" stroke="black" d="M3797.5,-694C3797.5,-694 2521.5,-694 2521.5,-694 2515.5,-694 2509.5,-688 2509.5,-682 2509.5,-682 2509.5,-612 2509.5,-612 2509.5,-606 2515.5,-600 2521.5,-600 2521.5,-600 3797.5,-600 3797.5,-600 3803.5,-600 3809.5,-606 3809.5,-612 3809.5,-612 3809.5,-682 3809.5,-682 3809.5,-688 3803.5,-694 3797.5,-694"/>
<text text-anchor="middle" x="3159.5" y="-679.8" font-family="Times,serif" font-size="9.00">Stmt[459]</text>
<text text-anchor="middle" x="3159.5" y="-669.8" font-family="Times,serif" font-size="9.00">CallICFGNode459 fun: _Z25innerTureIllegalInforFlowi &quot;ln&quot;: 12, &quot;cl&quot;: 24, &quot;fl&quot;: &quot;../../sdemoservice/src/i_sdemo_service.cpp&quot; </text>
<text text-anchor="middle" x="3159.5" y="-659.8" font-family="Times,serif" font-size="9.00">CallPE: [Var237 &lt;&#45;&#45; Var119]t</text>
<text text-anchor="middle" x="3159.5" y="-649.8" font-family="Times,serif" font-size="9.00">ValVar ID: 148</text>
<text text-anchor="middle" x="3159.5" y="-639.8" font-family="Times,serif" font-size="9.00"> &#160;&#160;%13 = call noundef ptr @_ZNSt3__h12basic_stringIcNS_11char_traitsIcEENS_9allocatorIcEEEC2B6v15004IDnEEPKc(ptr noundef nonnull align 4 dereferenceable(12) %5, ptr noundef @.str.2), !dbg !3277 &#160;&quot;ln&quot;: 12, &quot;cl&quot;: 24, &quot;fl&quot;: &quot;../../sdemoservice/src/i_sdemo_service.cpp&quot; </text>
<text text-anchor="middle" x="3159.5" y="-629.8" font-family="Times,serif" font-size="9.00">CallPE: [Var238 &lt;&#45;&#45; Var6]t</text>
<text text-anchor="middle" x="3159.5" y="-619.8" font-family="Times,serif" font-size="9.00">ValVar ID: 148</text>
<text text-anchor="middle" x="3159.5" y="-609.8" font-family="Times,serif" font-size="9.00"> &#160;&#160;%13 = call noundef ptr @_ZNSt3__h12basic_stringIcNS_11char_traitsIcEENS_9allocatorIcEEEC2B6v15004IDnEEPKc(ptr noundef nonnull align 4 dereferenceable(12) %5, ptr noundef @.str.2), !dbg !3277 &#160;&quot;ln&quot;: 12, &quot;cl&quot;: 24, &quot;fl&quot;: &quot;../../sdemoservice/src/i_sdemo_service.cpp&quot; </text>
</g>
<!-- stmt_94840692714096&#45;&gt;var_94840692847376 -->
<g id="edge10" class="edge">
<title>stmt_94840692714096&#45;&gt;var_94840692847376</title>
<path fill="none" stroke="blue" d="M3139.79,-599.85C3126.81,-569.46 3109.81,-529.66 3096.41,-498.28"/>
<polygon fill="blue" stroke="blue" points="3099.52,-496.66 3092.37,-488.84 3093.08,-499.41 3099.52,-496.66"/>
<text text-anchor="middle" x="3129" y="-535.6" font-family="Times,serif" font-size="8.00">defines</text>
</g>
<!-- var_94840692712416 -->
<g id="node13" class="node">
<title>var_94840692712416</title>
<polygon fill="lightblue" stroke="black" stroke-width="2" points="3159.5,-882 2916.5,-848 3159.5,-814 3402.5,-848 3159.5,-882"/>
<text text-anchor="middle" x="3159.5" y="-850.8" font-family="Times,serif" font-size="9.00">Ptr</text>
<text text-anchor="middle" x="3159.5" y="-840.8" font-family="Times,serif" font-size="9.00">PointedVarNode: ConstVarNode(Str: shadow/\00)</text>
</g>
<!-- var_94840692712416&#45;&gt;stmt_94840692714096 -->
<g id="edge9" class="edge">
<title>var_94840692712416&#45;&gt;stmt_94840692714096</title>
<path fill="none" stroke="red" d="M3159.5,-813.69C3159.5,-783.88 3159.5,-739.57 3159.5,-704.27"/>
<polygon fill="red" stroke="red" points="3163,-704.1 3159.5,-694.1 3156,-704.1 3163,-704.1"/>
<text text-anchor="middle" x="3170.5" y="-754.6" font-family="Times,serif" font-size="8.00">input</text>
</g>
</g>
</svg>
