<?xml version="1.0" encoding="UTF-8" standalone="no"?>
<!DOCTYPE svg PUBLIC "-//W3C//DTD SVG 1.1//EN"
 "http://www.w3.org/Graphics/SVG/1.1/DTD/svg11.dtd">
<!-- Generated by graphviz version 2.43.0 (0)
 -->
<!-- Title: VarsBuildingTree Pages: 1 -->
<svg width="1038pt" height="921pt"
 viewBox="0.00 0.00 1038.00 921.00" xmlns="http://www.w3.org/2000/svg" xmlns:xlink="http://www.w3.org/1999/xlink">
<g id="graph0" class="graph" transform="scale(1 1) rotate(0) translate(4 917)">
<title>VarsBuildingTree</title>
<polygon fill="white" stroke="transparent" points="-4,4 -4,-917 1034,-917 1034,4 -4,4"/>
<text text-anchor="middle" x="515" y="-899.4" font-family="Times,serif" font-size="12.00">VarsBuildingTree Visualization</text>
<!-- var_94662376586464 -->
<g id="node1" class="node">
<title>var_94662376586464</title>
<polygon fill="lightblue" stroke="black" stroke-width="2" points="708,-88 543,-44 708,0 873,-44 708,-88"/>
<text text-anchor="middle" x="708" y="-51.8" font-family="Times,serif" font-size="9.00">Ptr</text>
<text text-anchor="middle" x="708" y="-41.8" font-family="Times,serif" font-size="9.00">PointedVarNode: ValVar ID: 898</text>
<text text-anchor="middle" x="708" y="-31.8" font-family="Times,serif" font-size="9.00"> &#160;&#160;%2...</text>
</g>
<!-- stmt_94662376583424 -->
<g id="node2" class="node">
<title>stmt_94662376583424</title>
<path fill="lightcoral" stroke="black" d="M998,-247C998,-247 418,-247 418,-247 412,-247 406,-241 406,-235 406,-235 406,-195 406,-195 406,-189 412,-183 418,-183 418,-183 998,-183 998,-183 1004,-183 1010,-189 1010,-195 1010,-195 1010,-235 1010,-235 1010,-241 1004,-247 998,-247"/>
<text text-anchor="middle" x="708" y="-232.8" font-family="Times,serif" font-size="9.00">Stmt[1005]</text>
<text text-anchor="middle" x="708" y="-222.8" font-family="Times,serif" font-size="9.00">IntraICFGNode1005 fun: _Z27innerTureIllegalInforFlow_ci &quot;ln&quot;: 68, &quot;cl&quot;: 38, &quot;fl&quot;: &quot;../../sdemoservice/src/i_sdemo_service.cpp&quot; </text>
<text text-anchor="middle" x="708" y="-212.8" font-family="Times,serif" font-size="9.00">StoreStmt: [Var894 &lt;&#45;&#45; Var135]t</text>
<text text-anchor="middle" x="708" y="-202.8" font-family="Times,serif" font-size="9.00">ValVar ID: 895</text>
<text text-anchor="middle" x="708" y="-192.8" font-family="Times,serif" font-size="9.00"> &#160;&#160;store i8 0, ptr %23, align 1, !dbg !3294 &#160;&quot;ln&quot;: 68, &quot;cl&quot;: 38, &quot;fl&quot;: &quot;../../sdemoservice/src/i_sdemo_service.cpp&quot; </text>
</g>
<!-- stmt_94662376583424&#45;&gt;var_94662376586464 -->
<g id="edge5" class="edge">
<title>stmt_94662376583424&#45;&gt;var_94662376586464</title>
<path fill="none" stroke="blue" d="M708,-182.61C708,-158.99 708,-126.07 708,-98.35"/>
<polygon fill="blue" stroke="blue" points="711.5,-98.01 708,-88.01 704.5,-98.01 711.5,-98.01"/>
<text text-anchor="middle" x="722.5" y="-133.6" font-family="Times,serif" font-size="8.00">defines</text>
</g>
<!-- var_94662376464736 -->
<g id="node3" class="node">
<title>var_94662376464736</title>
<polygon fill="lightblue" stroke="black" stroke-width="2" points="381,-430 216,-386 381,-342 546,-386 381,-430"/>
<text text-anchor="middle" x="381" y="-393.8" font-family="Times,serif" font-size="9.00">Ptr</text>
<text text-anchor="middle" x="381" y="-383.8" font-family="Times,serif" font-size="9.00">PointedVarNode: ValVar ID: 894</text>
<text text-anchor="middle" x="381" y="-373.8" font-family="Times,serif" font-size="9.00"> &#160;&#160;%2...</text>
</g>
<!-- var_94662376464736&#45;&gt;stmt_94662376583424 -->
<g id="edge3" class="edge">
<title>var_94662376464736&#45;&gt;stmt_94662376583424</title>
<path fill="none" stroke="red" d="M436.1,-356.52C491.94,-327.67 578.46,-282.95 638.87,-251.73"/>
<polygon fill="red" stroke="red" points="640.68,-254.73 647.96,-247.03 637.46,-248.51 640.68,-254.73"/>
<text text-anchor="middle" x="576" y="-292.6" font-family="Times,serif" font-size="8.00">input</text>
</g>
<!-- stmt_94662376583376 -->
<g id="node4" class="node">
<title>stmt_94662376583376</title>
<path fill="lightcoral" stroke="black" d="M750,-709C750,-709 12,-709 12,-709 6,-709 0,-703 0,-697 0,-697 0,-537 0,-537 0,-531 6,-525 12,-525 12,-525 750,-525 750,-525 756,-525 762,-531 762,-537 762,-537 762,-697 762,-697 762,-703 756,-709 750,-709"/>
<text text-anchor="middle" x="381" y="-694.8" font-family="Times,serif" font-size="9.00">Stmt[1002]</text>
<text text-anchor="middle" x="381" y="-684.8" font-family="Times,serif" font-size="9.00">CallICFGNode1002 fun: _Z27innerTureIllegalInforFlow_ci &quot;ln&quot;: 67, &quot;cl&quot;: 5, &quot;fl&quot;: &quot;../../sdemoservice/src/i_sdemo_service.cpp&quot; </text>
<text text-anchor="middle" x="381" y="-674.8" font-family="Times,serif" font-size="9.00">GepStmt: [Var6913 &lt;&#45;&#45; Var887]t</text>
<text text-anchor="middle" x="381" y="-664.8" font-family="Times,serif" font-size="9.00">ValVar ID: 893</text>
<text text-anchor="middle" x="381" y="-654.8" font-family="Times,serif" font-size="9.00"> &#160;&#160;%22 = call ptr @strncpy(ptr noundef %16, ptr noundef %17, i32 noundef %21), !dbg !3292 &#160;&quot;ln&quot;: 67, &quot;cl&quot;: 5, &quot;fl&quot;: &quot;../../sdemoservice/src/i_sdemo_service.cpp&quot; </text>
<text text-anchor="middle" x="381" y="-644.8" font-family="Times,serif" font-size="9.00">GepStmt: [Var6914 &lt;&#45;&#45; Var888]t</text>
<text text-anchor="middle" x="381" y="-634.8" font-family="Times,serif" font-size="9.00">ValVar ID: 893</text>
<text text-anchor="middle" x="381" y="-624.8" font-family="Times,serif" font-size="9.00"> &#160;&#160;%22 = call ptr @strncpy(ptr noundef %16, ptr noundef %17, i32 noundef %21), !dbg !3292 &#160;&quot;ln&quot;: 67, &quot;cl&quot;: 5, &quot;fl&quot;: &quot;../../sdemoservice/src/i_sdemo_service.cpp&quot; </text>
<text text-anchor="middle" x="381" y="-614.8" font-family="Times,serif" font-size="9.00">LoadStmt: [Var6915 &lt;&#45;&#45; Var6914]t</text>
<text text-anchor="middle" x="381" y="-604.8" font-family="Times,serif" font-size="9.00">ValVar ID: 893</text>
<text text-anchor="middle" x="381" y="-594.8" font-family="Times,serif" font-size="9.00"> &#160;&#160;%22 = call ptr @strncpy(ptr noundef %16, ptr noundef %17, i32 noundef %21), !dbg !3292 &#160;&quot;ln&quot;: 67, &quot;cl&quot;: 5, &quot;fl&quot;: &quot;../../sdemoservice/src/i_sdemo_service.cpp&quot; </text>
<text text-anchor="middle" x="381" y="-584.8" font-family="Times,serif" font-size="9.00">StoreStmt: [Var6913 &lt;&#45;&#45; Var6915]t</text>
<text text-anchor="middle" x="381" y="-574.8" font-family="Times,serif" font-size="9.00">ValVar ID: 893</text>
<text text-anchor="middle" x="381" y="-564.8" font-family="Times,serif" font-size="9.00"> &#160;&#160;%22 = call ptr @strncpy(ptr noundef %16, ptr noundef %17, i32 noundef %21), !dbg !3292 &#160;&quot;ln&quot;: 67, &quot;cl&quot;: 5, &quot;fl&quot;: &quot;../../sdemoservice/src/i_sdemo_service.cpp&quot; </text>
<text text-anchor="middle" x="381" y="-554.8" font-family="Times,serif" font-size="9.00">CopyStmt: [Var893 &lt;&#45;&#45; Var887]t</text>
<text text-anchor="middle" x="381" y="-544.8" font-family="Times,serif" font-size="9.00">ValVar ID: 893</text>
<text text-anchor="middle" x="381" y="-534.8" font-family="Times,serif" font-size="9.00"> &#160;&#160;%22 = call ptr @strncpy(ptr noundef %16, ptr noundef %17, i32 noundef %21), !dbg !3292 &#160;&quot;ln&quot;: 67, &quot;cl&quot;: 5, &quot;fl&quot;: &quot;../../sdemoservice/src/i_sdemo_service.cpp&quot; </text>
</g>
<!-- stmt_94662376583376&#45;&gt;var_94662376464736 -->
<g id="edge2" class="edge">
<title>stmt_94662376583376&#45;&gt;var_94662376464736</title>
<path fill="none" stroke="blue" d="M381,-524.84C381,-496.11 381,-465.35 381,-440.18"/>
<polygon fill="blue" stroke="blue" points="384.5,-440.12 381,-430.12 377.5,-440.12 384.5,-440.12"/>
<text text-anchor="middle" x="395.5" y="-475.6" font-family="Times,serif" font-size="8.00">defines</text>
</g>
<!-- var_94662370032544 -->
<g id="node5" class="node">
<title>var_94662370032544</title>
<polygon fill="lightblue" stroke="black" stroke-width="2" points="381,-892 216,-848 381,-804 546,-848 381,-892"/>
<text text-anchor="middle" x="381" y="-855.8" font-family="Times,serif" font-size="9.00">Ptr</text>
<text text-anchor="middle" x="381" y="-845.8" font-family="Times,serif" font-size="9.00">PointedVarNode: ValVar ID: 888</text>
<text text-anchor="middle" x="381" y="-835.8" font-family="Times,serif" font-size="9.00"> &#160;&#160;%1...</text>
</g>
<!-- var_94662370032544&#45;&gt;stmt_94662376583376 -->
<g id="edge1" class="edge">
<title>var_94662370032544&#45;&gt;stmt_94662376583376</title>
<path fill="none" stroke="red" d="M381,-803.93C381,-779.95 381,-749.01 381,-719.28"/>
<polygon fill="red" stroke="red" points="384.5,-719.25 381,-709.25 377.5,-719.25 384.5,-719.25"/>
<text text-anchor="middle" x="392" y="-754.6" font-family="Times,serif" font-size="8.00">input</text>
</g>
<!-- var_94662369971392 -->
<g id="node6" class="node">
<title>var_94662369971392</title>
<polygon fill="lightblue" stroke="black" stroke-width="2" points="817,-420 604,-386 817,-352 1030,-386 817,-420"/>
<text text-anchor="middle" x="817" y="-388.8" font-family="Times,serif" font-size="9.00">Ptr</text>
<text text-anchor="middle" x="817" y="-378.8" font-family="Times,serif" font-size="9.00">PointedVarNode: ConstantIntValNode ID...</text>
</g>
<!-- var_94662369971392&#45;&gt;stmt_94662376583424 -->
<g id="edge4" class="edge">
<title>var_94662369971392&#45;&gt;stmt_94662376583424</title>
<path fill="none" stroke="red" d="M797.51,-354.79C779.68,-327.13 753.17,-286.03 733.62,-255.73"/>
<polygon fill="red" stroke="red" points="736.42,-253.6 728.06,-247.1 730.53,-257.4 736.42,-253.6"/>
<text text-anchor="middle" x="770" y="-292.6" font-family="Times,serif" font-size="8.00">input</text>
</g>
</g>
</svg>
