<?xml version="1.0" encoding="UTF-8" standalone="no"?>
<!DOCTYPE svg PUBLIC "-//W3C//DTD SVG 1.1//EN"
 "http://www.w3.org/Graphics/SVG/1.1/DTD/svg11.dtd">
<!-- Generated by graphviz version 2.43.0 (0)
 -->
<!-- Title: VarsBuildingTree Pages: 1 -->
<svg width="1585pt" height="740pt"
 viewBox="0.00 0.00 1585.48 740.00" xmlns="http://www.w3.org/2000/svg" xmlns:xlink="http://www.w3.org/1999/xlink">
<g id="graph0" class="graph" transform="scale(1 1) rotate(0) translate(4 736)">
<title>VarsBuildingTree</title>
<polygon fill="white" stroke="transparent" points="-4,4 -4,-736 1581.48,-736 1581.48,4 -4,4"/>
<!-- var_94424320694192 -->
<g id="node1" class="node">
<title>var_94424320694192</title>
<polygon fill="lightblue" stroke="black" points="788.74,-36 637.76,-18 788.74,0 939.73,-18 788.74,-36"/>
<text text-anchor="middle" x="788.74" y="-14.3" font-family="Times,serif" font-size="14.00">Ptr: PointedVarNode</text>
</g>
<!-- stmt_94424320681168 -->
<g id="node2" class="node">
<title>stmt_94424320681168</title>
<polygon fill="lightcoral" stroke="black" points="828.24,-123 749.24,-123 749.24,-87 828.24,-87 828.24,-123"/>
<text text-anchor="middle" x="788.74" y="-101.3" font-family="Times,serif" font-size="14.00">Stmt: 46</text>
</g>
<!-- stmt_94424320681168&#45;&gt;var_94424320694192 -->
<g id="edge18" class="edge">
<title>stmt_94424320681168&#45;&gt;var_94424320694192</title>
<path fill="none" stroke="blue" d="M788.74,-86.8C788.74,-75.16 788.74,-59.55 788.74,-46.24"/>
<polygon fill="blue" stroke="blue" points="792.24,-46.18 788.74,-36.18 785.24,-46.18 792.24,-46.18"/>
<text text-anchor="middle" x="814.74" y="-57.8" font-family="Times,serif" font-size="14.00">defines</text>
</g>
<!-- var_94424320706496 -->
<g id="node3" class="node">
<title>var_94424320706496</title>
<polygon fill="lightblue" stroke="black" points="469.74,-210 318.76,-192 469.74,-174 620.73,-192 469.74,-210"/>
<text text-anchor="middle" x="469.74" y="-188.3" font-family="Times,serif" font-size="14.00">Ptr: PointedVarNode</text>
</g>
<!-- var_94424320706496&#45;&gt;stmt_94424320681168 -->
<g id="edge1" class="edge">
<title>var_94424320706496&#45;&gt;stmt_94424320681168</title>
<path fill="none" stroke="red" d="M514.1,-179.18C573.13,-163.45 677.21,-135.72 738.89,-119.28"/>
<polygon fill="red" stroke="red" points="740.02,-122.6 748.78,-116.65 738.22,-115.84 740.02,-122.6"/>
<text text-anchor="middle" x="667.74" y="-144.8" font-family="Times,serif" font-size="14.00">input</text>
</g>
<!-- var_94424320706560 -->
<g id="node4" class="node">
<title>var_94424320706560</title>
<polygon fill="lightblue" stroke="black" points="788.74,-210 637.76,-192 788.74,-174 939.73,-192 788.74,-210"/>
<text text-anchor="middle" x="788.74" y="-188.3" font-family="Times,serif" font-size="14.00">Ptr: PointedVarNode</text>
</g>
<!-- var_94424320706560&#45;&gt;stmt_94424320681168 -->
<g id="edge13" class="edge">
<title>var_94424320706560&#45;&gt;stmt_94424320681168</title>
<path fill="none" stroke="red" d="M788.74,-173.8C788.74,-162.16 788.74,-146.55 788.74,-133.24"/>
<polygon fill="red" stroke="red" points="792.24,-133.18 788.74,-123.18 785.24,-133.18 792.24,-133.18"/>
<text text-anchor="middle" x="807.74" y="-144.8" font-family="Times,serif" font-size="14.00">input</text>
</g>
<!-- stmt_94424320681120 -->
<g id="node5" class="node">
<title>stmt_94424320681120</title>
<polygon fill="lightcoral" stroke="black" points="828.24,-297 749.24,-297 749.24,-261 828.24,-261 828.24,-297"/>
<text text-anchor="middle" x="788.74" y="-275.3" font-family="Times,serif" font-size="14.00">Stmt: 40</text>
</g>
<!-- stmt_94424320681120&#45;&gt;var_94424320706560 -->
<g id="edge12" class="edge">
<title>stmt_94424320681120&#45;&gt;var_94424320706560</title>
<path fill="none" stroke="blue" d="M788.74,-260.8C788.74,-249.16 788.74,-233.55 788.74,-220.24"/>
<polygon fill="blue" stroke="blue" points="792.24,-220.18 788.74,-210.18 785.24,-220.18 792.24,-220.18"/>
<text text-anchor="middle" x="814.74" y="-231.8" font-family="Times,serif" font-size="14.00">defines</text>
</g>
<!-- var_94424320706688 -->
<g id="node6" class="node">
<title>var_94424320706688</title>
<polygon fill="lightblue" stroke="black" points="469.74,-384 318.76,-366 469.74,-348 620.73,-366 469.74,-384"/>
<text text-anchor="middle" x="469.74" y="-362.3" font-family="Times,serif" font-size="14.00">Ptr: PointedVarNode</text>
</g>
<!-- var_94424320706688&#45;&gt;stmt_94424320681120 -->
<g id="edge5" class="edge">
<title>var_94424320706688&#45;&gt;stmt_94424320681120</title>
<path fill="none" stroke="red" d="M514.1,-353.18C573.13,-337.45 677.21,-309.72 738.89,-293.28"/>
<polygon fill="red" stroke="red" points="740.02,-296.6 748.78,-290.65 738.22,-289.84 740.02,-296.6"/>
<text text-anchor="middle" x="667.74" y="-318.8" font-family="Times,serif" font-size="14.00">input</text>
</g>
<!-- stmt_94424320698112 -->
<g id="node7" class="node">
<title>stmt_94424320698112</title>
<polygon fill="lightcoral" stroke="black" points="509.24,-471 430.24,-471 430.24,-435 509.24,-435 509.24,-471"/>
<text text-anchor="middle" x="469.74" y="-449.3" font-family="Times,serif" font-size="14.00">Stmt: 16</text>
</g>
<!-- stmt_94424320698112&#45;&gt;var_94424320706688 -->
<g id="edge4" class="edge">
<title>stmt_94424320698112&#45;&gt;var_94424320706688</title>
<path fill="none" stroke="blue" d="M469.74,-434.8C469.74,-423.16 469.74,-407.55 469.74,-394.24"/>
<polygon fill="blue" stroke="blue" points="473.24,-394.18 469.74,-384.18 466.24,-394.18 473.24,-394.18"/>
<text text-anchor="middle" x="495.74" y="-405.8" font-family="Times,serif" font-size="14.00">defines</text>
</g>
<!-- var_94424320697168 -->
<g id="node8" class="node">
<title>var_94424320697168</title>
<polygon fill="lightblue" stroke="black" points="150.74,-558 -0.24,-540 150.74,-522 301.73,-540 150.74,-558"/>
<text text-anchor="middle" x="150.74" y="-536.3" font-family="Times,serif" font-size="14.00">Ptr: PointedVarNode</text>
</g>
<!-- var_94424320697168&#45;&gt;stmt_94424320698112 -->
<g id="edge2" class="edge">
<title>var_94424320697168&#45;&gt;stmt_94424320698112</title>
<path fill="none" stroke="red" d="M195.1,-527.18C254.13,-511.45 358.21,-483.72 419.89,-467.28"/>
<polygon fill="red" stroke="red" points="421.02,-470.6 429.78,-464.65 419.22,-463.84 421.02,-470.6"/>
<text text-anchor="middle" x="348.74" y="-492.8" font-family="Times,serif" font-size="14.00">input</text>
</g>
<!-- var_94424320698544 -->
<g id="node9" class="node">
<title>var_94424320698544</title>
<polygon fill="lightblue" stroke="black" points="469.74,-558 318.76,-540 469.74,-522 620.73,-540 469.74,-558"/>
<text text-anchor="middle" x="469.74" y="-536.3" font-family="Times,serif" font-size="14.00">Ptr: PointedVarNode</text>
</g>
<!-- var_94424320698544&#45;&gt;stmt_94424320698112 -->
<g id="edge3" class="edge">
<title>var_94424320698544&#45;&gt;stmt_94424320698112</title>
<path fill="none" stroke="red" d="M469.74,-521.8C469.74,-510.16 469.74,-494.55 469.74,-481.24"/>
<polygon fill="red" stroke="red" points="473.24,-481.18 469.74,-471.18 466.24,-481.18 473.24,-481.18"/>
<text text-anchor="middle" x="488.74" y="-492.8" font-family="Times,serif" font-size="14.00">input</text>
</g>
<!-- var_94424320689760 -->
<g id="node10" class="node">
<title>var_94424320689760</title>
<polygon fill="lightblue" stroke="black" points="788.74,-384 637.76,-366 788.74,-348 939.73,-366 788.74,-384"/>
<text text-anchor="middle" x="788.74" y="-362.3" font-family="Times,serif" font-size="14.00">Ptr: PointedVarNode</text>
</g>
<!-- var_94424320689760&#45;&gt;stmt_94424320681120 -->
<g id="edge11" class="edge">
<title>var_94424320689760&#45;&gt;stmt_94424320681120</title>
<path fill="none" stroke="red" d="M788.74,-347.8C788.74,-336.16 788.74,-320.55 788.74,-307.24"/>
<polygon fill="red" stroke="red" points="792.24,-307.18 788.74,-297.18 785.24,-307.18 792.24,-307.18"/>
<text text-anchor="middle" x="807.74" y="-318.8" font-family="Times,serif" font-size="14.00">input</text>
</g>
<!-- stmt_94424320688528 -->
<g id="node11" class="node">
<title>stmt_94424320688528</title>
<polygon fill="lightcoral" stroke="black" points="828.24,-471 749.24,-471 749.24,-435 828.24,-435 828.24,-471"/>
<text text-anchor="middle" x="788.74" y="-449.3" font-family="Times,serif" font-size="14.00">Stmt: 21</text>
</g>
<!-- stmt_94424320688528&#45;&gt;var_94424320689760 -->
<g id="edge10" class="edge">
<title>stmt_94424320688528&#45;&gt;var_94424320689760</title>
<path fill="none" stroke="blue" d="M788.74,-434.8C788.74,-423.16 788.74,-407.55 788.74,-394.24"/>
<polygon fill="blue" stroke="blue" points="792.24,-394.18 788.74,-384.18 785.24,-394.18 792.24,-394.18"/>
<text text-anchor="middle" x="814.74" y="-405.8" font-family="Times,serif" font-size="14.00">defines</text>
</g>
<!-- var_94424320690960 -->
<g id="node12" class="node">
<title>var_94424320690960</title>
<polygon fill="lightblue" stroke="black" points="788.74,-558 637.76,-540 788.74,-522 939.73,-540 788.74,-558"/>
<text text-anchor="middle" x="788.74" y="-536.3" font-family="Times,serif" font-size="14.00">Ptr: PointedVarNode</text>
</g>
<!-- var_94424320690960&#45;&gt;stmt_94424320688528 -->
<g id="edge9" class="edge">
<title>var_94424320690960&#45;&gt;stmt_94424320688528</title>
<path fill="none" stroke="red" d="M788.74,-521.8C788.74,-510.16 788.74,-494.55 788.74,-481.24"/>
<polygon fill="red" stroke="red" points="792.24,-481.18 788.74,-471.18 785.24,-481.18 792.24,-481.18"/>
<text text-anchor="middle" x="807.74" y="-492.8" font-family="Times,serif" font-size="14.00">input</text>
</g>
<!-- stmt_94424320698320 -->
<g id="node13" class="node">
<title>stmt_94424320698320</title>
<polygon fill="lightcoral" stroke="black" points="828.24,-645 749.24,-645 749.24,-609 828.24,-609 828.24,-645"/>
<text text-anchor="middle" x="788.74" y="-623.3" font-family="Times,serif" font-size="14.00">Stmt: 14</text>
</g>
<!-- stmt_94424320698320&#45;&gt;var_94424320690960 -->
<g id="edge8" class="edge">
<title>stmt_94424320698320&#45;&gt;var_94424320690960</title>
<path fill="none" stroke="blue" d="M788.74,-608.8C788.74,-597.16 788.74,-581.55 788.74,-568.24"/>
<polygon fill="blue" stroke="blue" points="792.24,-568.18 788.74,-558.18 785.24,-568.18 792.24,-568.18"/>
<text text-anchor="middle" x="814.74" y="-579.8" font-family="Times,serif" font-size="14.00">defines</text>
</g>
<!-- var_94424320698256 -->
<g id="node14" class="node">
<title>var_94424320698256</title>
<polygon fill="lightblue" stroke="black" points="629.74,-732 478.76,-714 629.74,-696 780.73,-714 629.74,-732"/>
<text text-anchor="middle" x="629.74" y="-710.3" font-family="Times,serif" font-size="14.00">Ptr: PointedVarNode</text>
</g>
<!-- var_94424320698256&#45;&gt;stmt_94424320698320 -->
<g id="edge6" class="edge">
<title>var_94424320698256&#45;&gt;stmt_94424320698320</title>
<path fill="none" stroke="red" d="M656,-698.96C680.91,-685.65 718.73,-665.43 747.64,-649.97"/>
<polygon fill="red" stroke="red" points="749.51,-652.94 756.68,-645.14 746.21,-646.77 749.51,-652.94"/>
<text text-anchor="middle" x="738.74" y="-666.8" font-family="Times,serif" font-size="14.00">input</text>
</g>
<!-- var_94424320689856 -->
<g id="node15" class="node">
<title>var_94424320689856</title>
<polygon fill="lightblue" stroke="black" points="948.74,-732 797.76,-714 948.74,-696 1099.73,-714 948.74,-732"/>
<text text-anchor="middle" x="948.74" y="-710.3" font-family="Times,serif" font-size="14.00">Ptr: PointedVarNode</text>
</g>
<!-- var_94424320689856&#45;&gt;stmt_94424320698320 -->
<g id="edge7" class="edge">
<title>var_94424320689856&#45;&gt;stmt_94424320698320</title>
<path fill="none" stroke="red" d="M922.32,-698.96C897.25,-685.65 859.19,-665.43 830.1,-649.97"/>
<polygon fill="red" stroke="red" points="831.48,-646.74 821,-645.14 828.19,-652.92 831.48,-646.74"/>
<text text-anchor="middle" x="897.74" y="-666.8" font-family="Times,serif" font-size="14.00">input</text>
</g>
<!-- var_94424320706624 -->
<g id="node16" class="node">
<title>var_94424320706624</title>
<polygon fill="lightblue" stroke="black" points="1107.74,-210 956.76,-192 1107.74,-174 1258.73,-192 1107.74,-210"/>
<text text-anchor="middle" x="1107.74" y="-188.3" font-family="Times,serif" font-size="14.00">Ptr: PointedVarNode</text>
</g>
<!-- var_94424320706624&#45;&gt;stmt_94424320681168 -->
<g id="edge17" class="edge">
<title>var_94424320706624&#45;&gt;stmt_94424320681168</title>
<path fill="none" stroke="red" d="M1063.39,-179.18C1004.36,-163.45 900.27,-135.72 838.59,-119.28"/>
<polygon fill="red" stroke="red" points="839.26,-115.84 828.7,-116.65 837.46,-122.6 839.26,-115.84"/>
<text text-anchor="middle" x="986.74" y="-144.8" font-family="Times,serif" font-size="14.00">input</text>
</g>
<!-- stmt_94424320687840 -->
<g id="node17" class="node">
<title>stmt_94424320687840</title>
<polygon fill="lightcoral" stroke="black" points="1147.24,-297 1068.24,-297 1068.24,-261 1147.24,-261 1147.24,-297"/>
<text text-anchor="middle" x="1107.74" y="-275.3" font-family="Times,serif" font-size="14.00">Stmt: 28</text>
</g>
<!-- stmt_94424320687840&#45;&gt;var_94424320706624 -->
<g id="edge16" class="edge">
<title>stmt_94424320687840&#45;&gt;var_94424320706624</title>
<path fill="none" stroke="blue" d="M1107.74,-260.8C1107.74,-249.16 1107.74,-233.55 1107.74,-220.24"/>
<polygon fill="blue" stroke="blue" points="1111.24,-220.18 1107.74,-210.18 1104.24,-220.18 1111.24,-220.18"/>
<text text-anchor="middle" x="1133.74" y="-231.8" font-family="Times,serif" font-size="14.00">defines</text>
</g>
<!-- var_94424320698048 -->
<g id="node18" class="node">
<title>var_94424320698048</title>
<polygon fill="lightblue" stroke="black" points="1107.74,-384 956.76,-366 1107.74,-348 1258.73,-366 1107.74,-384"/>
<text text-anchor="middle" x="1107.74" y="-362.3" font-family="Times,serif" font-size="14.00">Ptr: PointedVarNode</text>
</g>
<!-- var_94424320698048&#45;&gt;stmt_94424320687840 -->
<g id="edge14" class="edge">
<title>var_94424320698048&#45;&gt;stmt_94424320687840</title>
<path fill="none" stroke="red" d="M1107.74,-347.8C1107.74,-336.16 1107.74,-320.55 1107.74,-307.24"/>
<polygon fill="red" stroke="red" points="1111.24,-307.18 1107.74,-297.18 1104.24,-307.18 1111.24,-307.18"/>
<text text-anchor="middle" x="1126.74" y="-318.8" font-family="Times,serif" font-size="14.00">input</text>
</g>
<!-- var_94424320689504 -->
<g id="node19" class="node">
<title>var_94424320689504</title>
<polygon fill="lightblue" stroke="black" points="1426.74,-384 1275.76,-366 1426.74,-348 1577.73,-366 1426.74,-384"/>
<text text-anchor="middle" x="1426.74" y="-362.3" font-family="Times,serif" font-size="14.00">Ptr: PointedVarNode</text>
</g>
<!-- var_94424320689504&#45;&gt;stmt_94424320687840 -->
<g id="edge15" class="edge">
<title>var_94424320689504&#45;&gt;stmt_94424320687840</title>
<path fill="none" stroke="red" d="M1382.39,-353.18C1323.36,-337.45 1219.27,-309.72 1157.59,-293.28"/>
<polygon fill="red" stroke="red" points="1158.26,-289.84 1147.7,-290.65 1156.46,-296.6 1158.26,-289.84"/>
<text text-anchor="middle" x="1305.74" y="-318.8" font-family="Times,serif" font-size="14.00">input</text>
</g>
</g>
</svg>
