<?xml version="1.0" encoding="UTF-8" standalone="no"?>
<!DOCTYPE svg PUBLIC "-//W3C//DTD SVG 1.1//EN"
 "http://www.w3.org/Graphics/SVG/1.1/DTD/svg11.dtd">
<!-- Generated by graphviz version 2.43.0 (0)
 -->
<!-- Title: VarsBuildingTree Pages: 1 -->
<svg width="1883pt" height="748pt"
 viewBox="0.00 0.00 1882.50 748.00" xmlns="http://www.w3.org/2000/svg" xmlns:xlink="http://www.w3.org/1999/xlink">
<g id="graph0" class="graph" transform="scale(1 1) rotate(0) translate(4 744)">
<title>VarsBuildingTree</title>
<polygon fill="white" stroke="transparent" points="-4,4 -4,-744 1878.5,-744 1878.5,4 -4,4"/>
<!-- var_94113641944784 -->
<g id="node1" class="node">
<title>var_94113641944784</title>
<polygon fill="lightblue" stroke="black" points="968,-36 817.02,-18 968,0 1118.98,-18 968,-36"/>
<text text-anchor="middle" x="968" y="-14.3" font-family="Times,serif" font-size="14.00">Ptr: PointedVarNode</text>
</g>
<!-- stmt_94113641931760 -->
<g id="node2" class="node">
<title>stmt_94113641931760</title>
<polygon fill="lightcoral" stroke="black" points="1302.5,-125 633.5,-125 633.5,-87 1302.5,-87 1302.5,-125"/>
<text text-anchor="middle" x="968" y="-109.8" font-family="Times,serif" font-size="14.00">Stmt[46]: CallICFGNode46 {fun: main{ &quot;ln&quot;: 31, &quot;cl&quot;: 5, &quot;fl&quot;: &quot;simple_node/str_para.cpp&quot; }}</text>
<text text-anchor="middle" x="968" y="-94.8" font-family="Times,serif" font-size="14.00"> &#160;&#160;%32...</text>
</g>
<!-- stmt_94113641931760&#45;&gt;var_94113641944784 -->
<g id="edge18" class="edge">
<title>stmt_94113641931760&#45;&gt;var_94113641944784</title>
<path fill="none" stroke="blue" d="M968,-86.76C968,-74.93 968,-59.32 968,-46.05"/>
<polygon fill="blue" stroke="blue" points="971.5,-46.04 968,-36.04 964.5,-46.04 971.5,-46.04"/>
<text text-anchor="middle" x="994" y="-57.8" font-family="Times,serif" font-size="14.00">defines</text>
</g>
<!-- var_94113641957088 -->
<g id="node3" class="node">
<title>var_94113641957088</title>
<polygon fill="lightblue" stroke="black" points="649,-212 498.02,-194 649,-176 799.98,-194 649,-212"/>
<text text-anchor="middle" x="649" y="-190.3" font-family="Times,serif" font-size="14.00">Ptr: PointedVarNode</text>
</g>
<!-- var_94113641957088&#45;&gt;stmt_94113641931760 -->
<g id="edge1" class="edge">
<title>var_94113641957088&#45;&gt;stmt_94113641931760</title>
<path fill="none" stroke="red" d="M693.02,-181.13C744.13,-167.35 829.32,-144.39 891.36,-127.66"/>
<polygon fill="red" stroke="red" points="892.37,-131.02 901.11,-125.03 890.54,-124.26 892.37,-131.02"/>
<text text-anchor="middle" x="847" y="-146.8" font-family="Times,serif" font-size="14.00">input</text>
</g>
<!-- var_94113641957152 -->
<g id="node4" class="node">
<title>var_94113641957152</title>
<polygon fill="lightblue" stroke="black" points="968,-212 817.02,-194 968,-176 1118.98,-194 968,-212"/>
<text text-anchor="middle" x="968" y="-190.3" font-family="Times,serif" font-size="14.00">Ptr: PointedVarNode</text>
</g>
<!-- var_94113641957152&#45;&gt;stmt_94113641931760 -->
<g id="edge13" class="edge">
<title>var_94113641957152&#45;&gt;stmt_94113641931760</title>
<path fill="none" stroke="red" d="M968,-175.6C968,-164.06 968,-148.65 968,-135.36"/>
<polygon fill="red" stroke="red" points="971.5,-135.27 968,-125.27 964.5,-135.27 971.5,-135.27"/>
<text text-anchor="middle" x="987" y="-146.8" font-family="Times,serif" font-size="14.00">input</text>
</g>
<!-- stmt_94113641931712 -->
<g id="node5" class="node">
<title>stmt_94113641931712</title>
<polygon fill="lightcoral" stroke="black" points="1187.5,-301 518.5,-301 518.5,-263 1187.5,-263 1187.5,-301"/>
<text text-anchor="middle" x="853" y="-285.8" font-family="Times,serif" font-size="14.00">Stmt[40]: CallICFGNode40 {fun: main{ &quot;ln&quot;: 30, &quot;cl&quot;: 5, &quot;fl&quot;: &quot;simple_node/str_para.cpp&quot; }}</text>
<text text-anchor="middle" x="853" y="-270.8" font-family="Times,serif" font-size="14.00">GepStm...</text>
</g>
<!-- stmt_94113641931712&#45;&gt;var_94113641957152 -->
<g id="edge12" class="edge">
<title>stmt_94113641931712&#45;&gt;var_94113641957152</title>
<path fill="none" stroke="blue" d="M877.11,-262.97C895.47,-249.24 920.78,-230.31 940.03,-215.92"/>
<polygon fill="blue" stroke="blue" points="942.22,-218.65 948.13,-209.86 938.03,-213.04 942.22,-218.65"/>
<text text-anchor="middle" x="947" y="-233.8" font-family="Times,serif" font-size="14.00">defines</text>
</g>
<!-- var_94113641957280 -->
<g id="node6" class="node">
<title>var_94113641957280</title>
<polygon fill="lightblue" stroke="black" points="618,-388 467.02,-370 618,-352 768.98,-370 618,-388"/>
<text text-anchor="middle" x="618" y="-366.3" font-family="Times,serif" font-size="14.00">Ptr: PointedVarNode</text>
</g>
<!-- var_94113641957280&#45;&gt;stmt_94113641931712 -->
<g id="edge5" class="edge">
<title>var_94113641957280&#45;&gt;stmt_94113641931712</title>
<path fill="none" stroke="red" d="M653.18,-356.12C690.4,-342.5 749.76,-320.78 794.13,-304.54"/>
<polygon fill="red" stroke="red" points="795.45,-307.79 803.64,-301.06 793.04,-301.21 795.45,-307.79"/>
<text text-anchor="middle" x="769" y="-322.8" font-family="Times,serif" font-size="14.00">input</text>
</g>
<!-- stmt_94113641948704 -->
<g id="node7" class="node">
<title>stmt_94113641948704</title>
<polygon fill="lightcoral" stroke="black" points="678,-477 0,-477 0,-439 678,-439 678,-477"/>
<text text-anchor="middle" x="339" y="-461.8" font-family="Times,serif" font-size="14.00">Stmt[16]: CallICFGNode16 {fun: main{ &quot;ln&quot;: 11, &quot;cl&quot;: 10, &quot;fl&quot;: &quot;simple_node/str_para.cpp&quot; }}</text>
<text text-anchor="middle" x="339" y="-446.8" font-family="Times,serif" font-size="14.00">GepSt...</text>
</g>
<!-- stmt_94113641948704&#45;&gt;var_94113641957280 -->
<g id="edge4" class="edge">
<title>stmt_94113641948704&#45;&gt;var_94113641957280</title>
<path fill="none" stroke="blue" d="M397.49,-438.97C448.06,-423.38 520.37,-401.09 568.22,-386.35"/>
<polygon fill="blue" stroke="blue" points="569.51,-389.61 578.04,-383.32 567.45,-382.92 569.51,-389.61"/>
<text text-anchor="middle" x="530" y="-409.8" font-family="Times,serif" font-size="14.00">defines</text>
</g>
<!-- var_94113641947760 -->
<g id="node8" class="node">
<title>var_94113641947760</title>
<polygon fill="lightblue" stroke="black" points="180,-564 29.02,-546 180,-528 330.98,-546 180,-564"/>
<text text-anchor="middle" x="180" y="-542.3" font-family="Times,serif" font-size="14.00">Ptr: PointedVarNode</text>
</g>
<!-- var_94113641947760&#45;&gt;stmt_94113641948704 -->
<g id="edge2" class="edge">
<title>var_94113641947760&#45;&gt;stmt_94113641948704</title>
<path fill="none" stroke="red" d="M205.9,-530.99C230.44,-517.72 267.72,-497.55 296.59,-481.94"/>
<polygon fill="red" stroke="red" points="298.51,-484.88 305.64,-477.04 295.18,-478.72 298.51,-484.88"/>
<text text-anchor="middle" x="289" y="-498.8" font-family="Times,serif" font-size="14.00">input</text>
</g>
<!-- var_94113641949136 -->
<g id="node9" class="node">
<title>var_94113641949136</title>
<polygon fill="lightblue" stroke="black" points="499,-564 348.02,-546 499,-528 649.98,-546 499,-564"/>
<text text-anchor="middle" x="499" y="-542.3" font-family="Times,serif" font-size="14.00">Ptr: PointedVarNode</text>
</g>
<!-- var_94113641949136&#45;&gt;stmt_94113641948704 -->
<g id="edge3" class="edge">
<title>var_94113641949136&#45;&gt;stmt_94113641948704</title>
<path fill="none" stroke="red" d="M472.94,-530.99C448.25,-517.72 410.73,-497.55 381.67,-481.94"/>
<polygon fill="red" stroke="red" points="383.03,-478.69 372.56,-477.04 379.72,-484.86 383.03,-478.69"/>
<text text-anchor="middle" x="453" y="-498.8" font-family="Times,serif" font-size="14.00">input</text>
</g>
<!-- var_94113641940352 -->
<g id="node10" class="node">
<title>var_94113641940352</title>
<polygon fill="lightblue" stroke="black" points="984,-388 833.02,-370 984,-352 1134.98,-370 984,-388"/>
<text text-anchor="middle" x="984" y="-366.3" font-family="Times,serif" font-size="14.00">Ptr: PointedVarNode</text>
</g>
<!-- var_94113641940352&#45;&gt;stmt_94113641931712 -->
<g id="edge11" class="edge">
<title>var_94113641940352&#45;&gt;stmt_94113641931712</title>
<path fill="none" stroke="red" d="M962.07,-354.61C942.18,-341.55 912.48,-322.04 889.09,-306.69"/>
<polygon fill="red" stroke="red" points="890.74,-303.59 880.46,-301.03 886.9,-309.44 890.74,-303.59"/>
<text text-anchor="middle" x="950" y="-322.8" font-family="Times,serif" font-size="14.00">input</text>
</g>
<!-- stmt_94113641939120 -->
<g id="node11" class="node">
<title>stmt_94113641939120</title>
<polygon fill="lightcoral" stroke="black" points="1365.5,-477 696.5,-477 696.5,-439 1365.5,-439 1365.5,-477"/>
<text text-anchor="middle" x="1031" y="-461.8" font-family="Times,serif" font-size="14.00">Stmt[21]: CallICFGNode21 {fun: main{ &quot;ln&quot;: 19, &quot;cl&quot;: 5, &quot;fl&quot;: &quot;simple_node/str_para.cpp&quot; }}</text>
<text text-anchor="middle" x="1031" y="-446.8" font-family="Times,serif" font-size="14.00">GepStm...</text>
</g>
<!-- stmt_94113641939120&#45;&gt;var_94113641940352 -->
<g id="edge10" class="edge">
<title>stmt_94113641939120&#45;&gt;var_94113641940352</title>
<path fill="none" stroke="blue" d="M1021.03,-438.76C1014.25,-426.34 1005.17,-409.74 997.71,-396.08"/>
<polygon fill="blue" stroke="blue" points="1000.71,-394.28 992.84,-387.18 994.57,-397.64 1000.71,-394.28"/>
<text text-anchor="middle" x="1037" y="-409.8" font-family="Times,serif" font-size="14.00">defines</text>
</g>
<!-- var_94113641941552 -->
<g id="node12" class="node">
<title>var_94113641941552</title>
<polygon fill="lightblue" stroke="black" points="1031,-564 880.02,-546 1031,-528 1181.98,-546 1031,-564"/>
<text text-anchor="middle" x="1031" y="-542.3" font-family="Times,serif" font-size="14.00">Ptr: PointedVarNode</text>
</g>
<!-- var_94113641941552&#45;&gt;stmt_94113641939120 -->
<g id="edge9" class="edge">
<title>var_94113641941552&#45;&gt;stmt_94113641939120</title>
<path fill="none" stroke="red" d="M1031,-527.6C1031,-516.06 1031,-500.65 1031,-487.36"/>
<polygon fill="red" stroke="red" points="1034.5,-487.27 1031,-477.27 1027.5,-487.27 1034.5,-487.27"/>
<text text-anchor="middle" x="1050" y="-498.8" font-family="Times,serif" font-size="14.00">input</text>
</g>
<!-- stmt_94113641948912 -->
<g id="node13" class="node">
<title>stmt_94113641948912</title>
<polygon fill="lightcoral" stroke="black" points="1370,-653 692,-653 692,-615 1370,-615 1370,-653"/>
<text text-anchor="middle" x="1031" y="-637.8" font-family="Times,serif" font-size="14.00">Stmt[14]: CallICFGNode14 {fun: main{ &quot;ln&quot;: 10, &quot;cl&quot;: 10, &quot;fl&quot;: &quot;simple_node/str_para.cpp&quot; }}</text>
<text text-anchor="middle" x="1031" y="-622.8" font-family="Times,serif" font-size="14.00">GepSt...</text>
</g>
<!-- stmt_94113641948912&#45;&gt;var_94113641941552 -->
<g id="edge8" class="edge">
<title>stmt_94113641948912&#45;&gt;var_94113641941552</title>
<path fill="none" stroke="blue" d="M1031,-614.76C1031,-602.93 1031,-587.32 1031,-574.05"/>
<polygon fill="blue" stroke="blue" points="1034.5,-574.04 1031,-564.04 1027.5,-574.04 1034.5,-574.04"/>
<text text-anchor="middle" x="1057" y="-585.8" font-family="Times,serif" font-size="14.00">defines</text>
</g>
<!-- var_94113641948848 -->
<g id="node14" class="node">
<title>var_94113641948848</title>
<polygon fill="lightblue" stroke="black" points="872,-740 721.02,-722 872,-704 1022.98,-722 872,-740"/>
<text text-anchor="middle" x="872" y="-718.3" font-family="Times,serif" font-size="14.00">Ptr: PointedVarNode</text>
</g>
<!-- var_94113641948848&#45;&gt;stmt_94113641948912 -->
<g id="edge6" class="edge">
<title>var_94113641948848&#45;&gt;stmt_94113641948912</title>
<path fill="none" stroke="red" d="M897.9,-706.99C922.44,-693.72 959.72,-673.55 988.59,-657.94"/>
<polygon fill="red" stroke="red" points="990.51,-660.88 997.64,-653.04 987.18,-654.72 990.51,-660.88"/>
<text text-anchor="middle" x="981" y="-674.8" font-family="Times,serif" font-size="14.00">input</text>
</g>
<!-- var_94113641940448 -->
<g id="node15" class="node">
<title>var_94113641940448</title>
<polygon fill="lightblue" stroke="black" points="1191,-740 1040.02,-722 1191,-704 1341.98,-722 1191,-740"/>
<text text-anchor="middle" x="1191" y="-718.3" font-family="Times,serif" font-size="14.00">Ptr: PointedVarNode</text>
</g>
<!-- var_94113641940448&#45;&gt;stmt_94113641948912 -->
<g id="edge7" class="edge">
<title>var_94113641940448&#45;&gt;stmt_94113641948912</title>
<path fill="none" stroke="red" d="M1164.94,-706.99C1140.25,-693.72 1102.73,-673.55 1073.67,-657.94"/>
<polygon fill="red" stroke="red" points="1075.03,-654.69 1064.56,-653.04 1071.72,-660.86 1075.03,-654.69"/>
<text text-anchor="middle" x="1145" y="-674.8" font-family="Times,serif" font-size="14.00">input</text>
</g>
<!-- var_94113641957216 -->
<g id="node16" class="node">
<title>var_94113641957216</title>
<polygon fill="lightblue" stroke="black" points="1471,-212 1320.02,-194 1471,-176 1621.98,-194 1471,-212"/>
<text text-anchor="middle" x="1471" y="-190.3" font-family="Times,serif" font-size="14.00">Ptr: PointedVarNode</text>
</g>
<!-- var_94113641957216&#45;&gt;stmt_94113641931760 -->
<g id="edge17" class="edge">
<title>var_94113641957216&#45;&gt;stmt_94113641931760</title>
<path fill="none" stroke="red" d="M1412.32,-182.97C1332.06,-169.24 1186.34,-144.33 1083.7,-126.78"/>
<polygon fill="red" stroke="red" points="1084.05,-123.29 1073.6,-125.05 1082.87,-130.19 1084.05,-123.29"/>
<text text-anchor="middle" x="1284" y="-146.8" font-family="Times,serif" font-size="14.00">input</text>
</g>
<!-- stmt_94113641938432 -->
<g id="node17" class="node">
<title>stmt_94113641938432</title>
<polygon fill="lightcoral" stroke="black" points="1874.5,-301 1205.5,-301 1205.5,-263 1874.5,-263 1874.5,-301"/>
<text text-anchor="middle" x="1540" y="-285.8" font-family="Times,serif" font-size="14.00">Stmt[28]: CallICFGNode28 {fun: main{ &quot;ln&quot;: 23, &quot;cl&quot;: 5, &quot;fl&quot;: &quot;simple_node/str_para.cpp&quot; }}</text>
<text text-anchor="middle" x="1540" y="-270.8" font-family="Times,serif" font-size="14.00">GepStm...</text>
</g>
<!-- stmt_94113641938432&#45;&gt;var_94113641957216 -->
<g id="edge16" class="edge">
<title>stmt_94113641938432&#45;&gt;var_94113641957216</title>
<path fill="none" stroke="blue" d="M1525.37,-262.76C1515.08,-249.94 1501.22,-232.66 1490.07,-218.77"/>
<polygon fill="blue" stroke="blue" points="1492.52,-216.23 1483.53,-210.62 1487.06,-220.61 1492.52,-216.23"/>
<text text-anchor="middle" x="1536" y="-233.8" font-family="Times,serif" font-size="14.00">defines</text>
</g>
<!-- var_94113641948640 -->
<g id="node18" class="node">
<title>var_94113641948640</title>
<polygon fill="lightblue" stroke="black" points="1327,-388 1176.02,-370 1327,-352 1477.98,-370 1327,-388"/>
<text text-anchor="middle" x="1327" y="-366.3" font-family="Times,serif" font-size="14.00">Ptr: PointedVarNode</text>
</g>
<!-- var_94113641948640&#45;&gt;stmt_94113641938432 -->
<g id="edge14" class="edge">
<title>var_94113641948640&#45;&gt;stmt_94113641938432</title>
<path fill="none" stroke="red" d="M1359.81,-355.75C1393.41,-342.19 1446.2,-320.87 1485.98,-304.81"/>
<polygon fill="red" stroke="red" points="1487.31,-308.05 1495.27,-301.06 1484.69,-301.56 1487.31,-308.05"/>
<text text-anchor="middle" x="1466" y="-322.8" font-family="Times,serif" font-size="14.00">input</text>
</g>
<!-- var_94113641940096 -->
<g id="node19" class="node">
<title>var_94113641940096</title>
<polygon fill="lightblue" stroke="black" points="1646,-388 1495.02,-370 1646,-352 1796.98,-370 1646,-388"/>
<text text-anchor="middle" x="1646" y="-366.3" font-family="Times,serif" font-size="14.00">Ptr: PointedVarNode</text>
</g>
<!-- var_94113641940096&#45;&gt;stmt_94113641938432 -->
<g id="edge15" class="edge">
<title>var_94113641940096&#45;&gt;stmt_94113641938432</title>
<path fill="none" stroke="red" d="M1627.54,-354.02C1611.8,-341.25 1588.86,-322.64 1570.41,-307.67"/>
<polygon fill="red" stroke="red" points="1572.26,-304.67 1562.29,-301.09 1567.85,-310.11 1572.26,-304.67"/>
<text text-anchor="middle" x="1622" y="-322.8" font-family="Times,serif" font-size="14.00">input</text>
</g>
</g>
</svg>
