<?xml version="1.0" encoding="UTF-8" standalone="no"?>
<!DOCTYPE svg PUBLIC "-//W3C//DTD SVG 1.1//EN"
 "http://www.w3.org/Graphics/SVG/1.1/DTD/svg11.dtd">
<!-- Generated by graphviz version 2.43.0 (0)
 -->
<!-- Title: VarsBuildingTree Pages: 1 -->
<svg width="1857pt" height="1695pt"
 viewBox="0.00 0.00 1857.00 1695.00" xmlns="http://www.w3.org/2000/svg" xmlns:xlink="http://www.w3.org/1999/xlink">
<g id="graph0" class="graph" transform="scale(1 1) rotate(0) translate(4 1691)">
<title>VarsBuildingTree</title>
<polygon fill="white" stroke="transparent" points="-4,4 -4,-1691 1853,-1691 1853,4 -4,4"/>
<text text-anchor="middle" x="924.5" y="-1673.4" font-family="Times,serif" font-size="12.00">VarsBuildingTree Visualization</text>
<!-- var_93927955237104 -->
<g id="node1" class="node">
<title>var_93927955237104</title>
<polygon fill="lightblue" stroke="black" stroke-width="2" points="1045.5,-68 955.5,-34 1045.5,0 1135.5,-34 1045.5,-68"/>
<text text-anchor="middle" x="1045.5" y="-36.8" font-family="Times,serif" font-size="9.00">Ptr</text>
<text text-anchor="middle" x="1045.5" y="-26.8" font-family="Times,serif" font-size="9.00">PointedVarNode</text>
</g>
<!-- stmt_93927955224080 -->
<g id="node2" class="node">
<title>stmt_93927955224080</title>
<path fill="lightcoral" stroke="black" d="M1534.5,-207C1534.5,-207 556.5,-207 556.5,-207 550.5,-207 544.5,-201 544.5,-195 544.5,-195 544.5,-175 544.5,-175 544.5,-169 550.5,-163 556.5,-163 556.5,-163 1534.5,-163 1534.5,-163 1540.5,-163 1546.5,-169 1546.5,-175 1546.5,-175 1546.5,-195 1546.5,-195 1546.5,-201 1540.5,-207 1534.5,-207"/>
<text text-anchor="middle" x="1045.5" y="-192.8" font-family="Times,serif" font-size="9.00">Stmt[46]</text>
<text text-anchor="middle" x="1045.5" y="-182.8" font-family="Times,serif" font-size="9.00">CallICFGNode46 fun: main &quot;ln&quot;: 31, &quot;cl&quot;: 5, &quot;fl&quot;: &quot;simple_node/str_para.cpp&quot; </text>
<text text-anchor="middle" x="1045.5" y="-172.8" font-family="Times,serif" font-size="9.00"> &#160;&#160;%32 = call i32 (ptr, ptr, ...) @sprintf(ptr noundef %28, ptr noundef @.str.3, ptr noundef %29, ptr noundef %30, i32 noundef %31) #5, !dbg !921 CallICFGNode: &#160;&quot;ln&quot;: 31, &quot;cl&quot;: 5, &quot;fl&quot;: &quot;simple_node/str_para.cpp&quot; </text>
</g>
<!-- stmt_93927955224080&#45;&gt;var_93927955237104 -->
<g id="edge18" class="edge">
<title>stmt_93927955224080&#45;&gt;var_93927955237104</title>
<path fill="none" stroke="blue" d="M1045.5,-162.97C1045.5,-141.13 1045.5,-106.34 1045.5,-78.54"/>
<polygon fill="blue" stroke="blue" points="1049,-78.27 1045.5,-68.27 1042,-78.27 1049,-78.27"/>
<text text-anchor="middle" x="1060" y="-113.6" font-family="Times,serif" font-size="8.00">defines</text>
</g>
<!-- var_93927955249408 -->
<g id="node3" class="node">
<title>var_93927955249408</title>
<polygon fill="lightblue" stroke="black" stroke-width="2" points="807.5,-370 717.5,-336 807.5,-302 897.5,-336 807.5,-370"/>
<text text-anchor="middle" x="807.5" y="-338.8" font-family="Times,serif" font-size="9.00">Ptr</text>
<text text-anchor="middle" x="807.5" y="-328.8" font-family="Times,serif" font-size="9.00">PointedVarNode</text>
</g>
<!-- var_93927955249408&#45;&gt;stmt_93927955224080 -->
<g id="edge1" class="edge">
<title>var_93927955249408&#45;&gt;stmt_93927955224080</title>
<path fill="none" stroke="red" d="M840.59,-314.28C883.07,-287.69 956.82,-241.52 1003.29,-212.42"/>
<polygon fill="red" stroke="red" points="1005.3,-215.3 1011.92,-207.02 1001.59,-209.36 1005.3,-215.3"/>
<text text-anchor="middle" x="952.5" y="-252.6" font-family="Times,serif" font-size="8.00">input</text>
</g>
<!-- var_93927955249472 -->
<g id="node4" class="node">
<title>var_93927955249472</title>
<polygon fill="lightblue" stroke="black" stroke-width="2" points="1045.5,-370 955.5,-336 1045.5,-302 1135.5,-336 1045.5,-370"/>
<text text-anchor="middle" x="1045.5" y="-338.8" font-family="Times,serif" font-size="9.00">Ptr</text>
<text text-anchor="middle" x="1045.5" y="-328.8" font-family="Times,serif" font-size="9.00">PointedVarNode</text>
</g>
<!-- var_93927955249472&#45;&gt;stmt_93927955224080 -->
<g id="edge13" class="edge">
<title>var_93927955249472&#45;&gt;stmt_93927955224080</title>
<path fill="none" stroke="red" d="M1045.5,-301.93C1045.5,-276.69 1045.5,-242.14 1045.5,-217.34"/>
<polygon fill="red" stroke="red" points="1049,-217.03 1045.5,-207.03 1042,-217.03 1049,-217.03"/>
<text text-anchor="middle" x="1056.5" y="-252.6" font-family="Times,serif" font-size="8.00">input</text>
</g>
<!-- stmt_93927955224032 -->
<g id="node5" class="node">
<title>stmt_93927955224032</title>
<path fill="lightcoral" stroke="black" d="M1176,-649C1176,-649 597,-649 597,-649 591,-649 585,-643 585,-637 585,-637 585,-477 585,-477 585,-471 591,-465 597,-465 597,-465 1176,-465 1176,-465 1182,-465 1188,-471 1188,-477 1188,-477 1188,-637 1188,-637 1188,-643 1182,-649 1176,-649"/>
<text text-anchor="middle" x="886.5" y="-634.8" font-family="Times,serif" font-size="9.00">Stmt[40]</text>
<text text-anchor="middle" x="886.5" y="-624.8" font-family="Times,serif" font-size="9.00">CallICFGNode40 fun: main &quot;ln&quot;: 30, &quot;cl&quot;: 5, &quot;fl&quot;: &quot;simple_node/str_para.cpp&quot; </text>
<text text-anchor="middle" x="886.5" y="-614.8" font-family="Times,serif" font-size="9.00">GepStmt: [Var158 &lt;&#45;&#45; Var81]t</text>
<text text-anchor="middle" x="886.5" y="-604.8" font-family="Times,serif" font-size="9.00">ValVar ID: 83</text>
<text text-anchor="middle" x="886.5" y="-594.8" font-family="Times,serif" font-size="9.00"> &#160;&#160;%27 = call ptr @strcat(ptr noundef %25, ptr noundef %26) #5, !dbg !916 &#160;&quot;ln&quot;: 30, &quot;cl&quot;: 5, &quot;fl&quot;: &quot;simple_node/str_para.cpp&quot; </text>
<text text-anchor="middle" x="886.5" y="-584.8" font-family="Times,serif" font-size="9.00">GepStmt: [Var159 &lt;&#45;&#45; Var82]t</text>
<text text-anchor="middle" x="886.5" y="-574.8" font-family="Times,serif" font-size="9.00">ValVar ID: 83</text>
<text text-anchor="middle" x="886.5" y="-564.8" font-family="Times,serif" font-size="9.00"> &#160;&#160;%27 = call ptr @strcat(ptr noundef %25, ptr noundef %26) #5, !dbg !916 &#160;&quot;ln&quot;: 30, &quot;cl&quot;: 5, &quot;fl&quot;: &quot;simple_node/str_para.cpp&quot; </text>
<text text-anchor="middle" x="886.5" y="-554.8" font-family="Times,serif" font-size="9.00">LoadStmt: [Var160 &lt;&#45;&#45; Var159]t</text>
<text text-anchor="middle" x="886.5" y="-544.8" font-family="Times,serif" font-size="9.00">ValVar ID: 83</text>
<text text-anchor="middle" x="886.5" y="-534.8" font-family="Times,serif" font-size="9.00"> &#160;&#160;%27 = call ptr @strcat(ptr noundef %25, ptr noundef %26) #5, !dbg !916 &#160;&quot;ln&quot;: 30, &quot;cl&quot;: 5, &quot;fl&quot;: &quot;simple_node/str_para.cpp&quot; </text>
<text text-anchor="middle" x="886.5" y="-524.8" font-family="Times,serif" font-size="9.00">StoreStmt: [Var158 &lt;&#45;&#45; Var160]t</text>
<text text-anchor="middle" x="886.5" y="-514.8" font-family="Times,serif" font-size="9.00">ValVar ID: 83</text>
<text text-anchor="middle" x="886.5" y="-504.8" font-family="Times,serif" font-size="9.00"> &#160;&#160;%27 = call ptr @strcat(ptr noundef %25, ptr noundef %26) #5, !dbg !916 &#160;&quot;ln&quot;: 30, &quot;cl&quot;: 5, &quot;fl&quot;: &quot;simple_node/str_para.cpp&quot; </text>
<text text-anchor="middle" x="886.5" y="-494.8" font-family="Times,serif" font-size="9.00">CopyStmt: [Var83 &lt;&#45;&#45; Var81]t</text>
<text text-anchor="middle" x="886.5" y="-484.8" font-family="Times,serif" font-size="9.00">ValVar ID: 83</text>
<text text-anchor="middle" x="886.5" y="-474.8" font-family="Times,serif" font-size="9.00"> &#160;&#160;%27 = call ptr @strcat(ptr noundef %25, ptr noundef %26) #5, !dbg !916 &#160;&quot;ln&quot;: 30, &quot;cl&quot;: 5, &quot;fl&quot;: &quot;simple_node/str_para.cpp&quot; </text>
</g>
<!-- stmt_93927955224032&#45;&gt;var_93927955249472 -->
<g id="edge12" class="edge">
<title>stmt_93927955224032&#45;&gt;var_93927955249472</title>
<path fill="none" stroke="blue" d="M952.78,-464.71C976.82,-431.6 1002.52,-396.2 1020.75,-371.09"/>
<polygon fill="blue" stroke="blue" points="1023.59,-373.14 1026.63,-362.99 1017.92,-369.03 1023.59,-373.14"/>
<text text-anchor="middle" x="1005" y="-415.6" font-family="Times,serif" font-size="8.00">defines</text>
</g>
<!-- var_93927955249600 -->
<g id="node6" class="node">
<title>var_93927955249600</title>
<polygon fill="lightblue" stroke="black" stroke-width="2" points="768.5,-812 678.5,-778 768.5,-744 858.5,-778 768.5,-812"/>
<text text-anchor="middle" x="768.5" y="-780.8" font-family="Times,serif" font-size="9.00">Ptr</text>
<text text-anchor="middle" x="768.5" y="-770.8" font-family="Times,serif" font-size="9.00">PointedVarNode</text>
</g>
<!-- var_93927955249600&#45;&gt;stmt_93927955224032 -->
<g id="edge5" class="edge">
<title>var_93927955249600&#45;&gt;stmt_93927955224032</title>
<path fill="none" stroke="red" d="M783.44,-749.26C795.91,-726.12 814.48,-691.67 832.43,-658.35"/>
<polygon fill="red" stroke="red" points="835.56,-659.92 837.22,-649.46 829.4,-656.6 835.56,-659.92"/>
<text text-anchor="middle" x="824.5" y="-694.6" font-family="Times,serif" font-size="8.00">input</text>
</g>
<!-- stmt_93927955241024 -->
<g id="node7" class="node">
<title>stmt_93927955241024</title>
<path fill="lightcoral" stroke="black" d="M761,-1076C761,-1076 12,-1076 12,-1076 6,-1076 0,-1070 0,-1064 0,-1064 0,-934 0,-934 0,-928 6,-922 12,-922 12,-922 761,-922 761,-922 767,-922 773,-928 773,-934 773,-934 773,-1064 773,-1064 773,-1070 767,-1076 761,-1076"/>
<text text-anchor="middle" x="386.5" y="-1061.8" font-family="Times,serif" font-size="9.00">Stmt[16]</text>
<text text-anchor="middle" x="386.5" y="-1051.8" font-family="Times,serif" font-size="9.00">CallICFGNode16 fun: main &quot;ln&quot;: 11, &quot;cl&quot;: 10, &quot;fl&quot;: &quot;simple_node/str_para.cpp&quot; </text>
<text text-anchor="middle" x="386.5" y="-1041.8" font-family="Times,serif" font-size="9.00">GepStmt: [Var149 &lt;&#45;&#45; Var25]t</text>
<text text-anchor="middle" x="386.5" y="-1031.8" font-family="Times,serif" font-size="9.00">ValVar ID: 50</text>
<text text-anchor="middle" x="386.5" y="-1021.8" font-family="Times,serif" font-size="9.00"> &#160;&#160;call void @llvm.memcpy.p0.p0.i64(ptr align 1 %3, ptr align 1 @__const.main.str2, i64 14, i1 false), !dbg !883 &#160;&quot;ln&quot;: 11, &quot;cl&quot;: 10, &quot;fl&quot;: &quot;simple_node/str_para.cpp&quot; </text>
<text text-anchor="middle" x="386.5" y="-1011.8" font-family="Times,serif" font-size="9.00">GepStmt: [Var150 &lt;&#45;&#45; Var11]t</text>
<text text-anchor="middle" x="386.5" y="-1001.8" font-family="Times,serif" font-size="9.00">ValVar ID: 50</text>
<text text-anchor="middle" x="386.5" y="-991.8" font-family="Times,serif" font-size="9.00"> &#160;&#160;call void @llvm.memcpy.p0.p0.i64(ptr align 1 %3, ptr align 1 @__const.main.str2, i64 14, i1 false), !dbg !883 &#160;&quot;ln&quot;: 11, &quot;cl&quot;: 10, &quot;fl&quot;: &quot;simple_node/str_para.cpp&quot; </text>
<text text-anchor="middle" x="386.5" y="-981.8" font-family="Times,serif" font-size="9.00">LoadStmt: [Var151 &lt;&#45;&#45; Var150]t</text>
<text text-anchor="middle" x="386.5" y="-971.8" font-family="Times,serif" font-size="9.00">ValVar ID: 50</text>
<text text-anchor="middle" x="386.5" y="-961.8" font-family="Times,serif" font-size="9.00"> &#160;&#160;call void @llvm.memcpy.p0.p0.i64(ptr align 1 %3, ptr align 1 @__const.main.str2, i64 14, i1 false), !dbg !883 &#160;&quot;ln&quot;: 11, &quot;cl&quot;: 10, &quot;fl&quot;: &quot;simple_node/str_para.cpp&quot; </text>
<text text-anchor="middle" x="386.5" y="-951.8" font-family="Times,serif" font-size="9.00">StoreStmt: [Var149 &lt;&#45;&#45; Var151]t</text>
<text text-anchor="middle" x="386.5" y="-941.8" font-family="Times,serif" font-size="9.00">ValVar ID: 50</text>
<text text-anchor="middle" x="386.5" y="-931.8" font-family="Times,serif" font-size="9.00"> &#160;&#160;call void @llvm.memcpy.p0.p0.i64(ptr align 1 %3, ptr align 1 @__const.main.str2, i64 14, i1 false), !dbg !883 &#160;&quot;ln&quot;: 11, &quot;cl&quot;: 10, &quot;fl&quot;: &quot;simple_node/str_para.cpp&quot; </text>
</g>
<!-- stmt_93927955241024&#45;&gt;var_93927955249600 -->
<g id="edge4" class="edge">
<title>stmt_93927955241024&#45;&gt;var_93927955249600</title>
<path fill="none" stroke="blue" d="M519.3,-921.87C591.09,-880.71 675,-832.6 724.84,-804.03"/>
<polygon fill="blue" stroke="blue" points="726.8,-806.94 733.74,-798.93 723.32,-800.87 726.8,-806.94"/>
<text text-anchor="middle" x="649" y="-857.6" font-family="Times,serif" font-size="8.00">defines</text>
</g>
<!-- var_93927955240080 -->
<g id="node8" class="node">
<title>var_93927955240080</title>
<polygon fill="lightblue" stroke="black" stroke-width="2" points="267.5,-1254 177.5,-1220 267.5,-1186 357.5,-1220 267.5,-1254"/>
<text text-anchor="middle" x="267.5" y="-1222.8" font-family="Times,serif" font-size="9.00">Ptr</text>
<text text-anchor="middle" x="267.5" y="-1212.8" font-family="Times,serif" font-size="9.00">PointedVarNode</text>
</g>
<!-- var_93927955240080&#45;&gt;stmt_93927955241024 -->
<g id="edge2" class="edge">
<title>var_93927955240080&#45;&gt;stmt_93927955241024</title>
<path fill="none" stroke="red" d="M282.57,-1191.26C297.05,-1164.62 319.67,-1122.99 340.12,-1085.35"/>
<polygon fill="red" stroke="red" points="343.29,-1086.85 344.99,-1076.39 337.14,-1083.5 343.29,-1086.85"/>
<text text-anchor="middle" x="324.5" y="-1136.6" font-family="Times,serif" font-size="8.00">input</text>
</g>
<!-- var_93927955241456 -->
<g id="node9" class="node">
<title>var_93927955241456</title>
<polygon fill="lightblue" stroke="black" stroke-width="2" points="505.5,-1254 415.5,-1220 505.5,-1186 595.5,-1220 505.5,-1254"/>
<text text-anchor="middle" x="505.5" y="-1222.8" font-family="Times,serif" font-size="9.00">Ptr</text>
<text text-anchor="middle" x="505.5" y="-1212.8" font-family="Times,serif" font-size="9.00">PointedVarNode</text>
</g>
<!-- var_93927955241456&#45;&gt;stmt_93927955241024 -->
<g id="edge3" class="edge">
<title>var_93927955241456&#45;&gt;stmt_93927955241024</title>
<path fill="none" stroke="red" d="M490.43,-1191.26C475.95,-1164.62 453.33,-1122.99 432.88,-1085.35"/>
<polygon fill="red" stroke="red" points="435.86,-1083.5 428.01,-1076.39 429.71,-1086.85 435.86,-1083.5"/>
<text text-anchor="middle" x="475.5" y="-1136.6" font-family="Times,serif" font-size="8.00">input</text>
</g>
<!-- var_93927955232672 -->
<g id="node10" class="node">
<title>var_93927955232672</title>
<polygon fill="lightblue" stroke="black" stroke-width="2" points="1070.5,-812 980.5,-778 1070.5,-744 1160.5,-778 1070.5,-812"/>
<text text-anchor="middle" x="1070.5" y="-780.8" font-family="Times,serif" font-size="9.00">Ptr</text>
<text text-anchor="middle" x="1070.5" y="-770.8" font-family="Times,serif" font-size="9.00">PointedVarNode</text>
</g>
<!-- var_93927955232672&#45;&gt;stmt_93927955224032 -->
<g id="edge11" class="edge">
<title>var_93927955232672&#45;&gt;stmt_93927955224032</title>
<path fill="none" stroke="red" d="M1049.39,-751.88C1029.73,-728.48 999.12,-692.04 969.71,-657.04"/>
<polygon fill="red" stroke="red" points="972.18,-654.54 963.07,-649.13 966.82,-659.04 972.18,-654.54"/>
<text text-anchor="middle" x="1017.5" y="-694.6" font-family="Times,serif" font-size="8.00">input</text>
</g>
<!-- stmt_93927955231440 -->
<g id="node11" class="node">
<title>stmt_93927955231440</title>
<path fill="lightcoral" stroke="black" d="M1425.5,-1091C1425.5,-1091 843.5,-1091 843.5,-1091 837.5,-1091 831.5,-1085 831.5,-1079 831.5,-1079 831.5,-919 831.5,-919 831.5,-913 837.5,-907 843.5,-907 843.5,-907 1425.5,-907 1425.5,-907 1431.5,-907 1437.5,-913 1437.5,-919 1437.5,-919 1437.5,-1079 1437.5,-1079 1437.5,-1085 1431.5,-1091 1425.5,-1091"/>
<text text-anchor="middle" x="1134.5" y="-1076.8" font-family="Times,serif" font-size="9.00">Stmt[21]</text>
<text text-anchor="middle" x="1134.5" y="-1066.8" font-family="Times,serif" font-size="9.00">CallICFGNode21 fun: main &quot;ln&quot;: 19, &quot;cl&quot;: 5, &quot;fl&quot;: &quot;simple_node/str_para.cpp&quot; </text>
<text text-anchor="middle" x="1134.5" y="-1056.8" font-family="Times,serif" font-size="9.00">GepStmt: [Var152 &lt;&#45;&#45; Var58]t</text>
<text text-anchor="middle" x="1134.5" y="-1046.8" font-family="Times,serif" font-size="9.00">ValVar ID: 61</text>
<text text-anchor="middle" x="1134.5" y="-1036.8" font-family="Times,serif" font-size="9.00"> &#160;&#160;%13 = call ptr @strcpy(ptr noundef %11, ptr noundef %12) #5, !dbg !902 &#160;&quot;ln&quot;: 19, &quot;cl&quot;: 5, &quot;fl&quot;: &quot;simple_node/str_para.cpp&quot; </text>
<text text-anchor="middle" x="1134.5" y="-1026.8" font-family="Times,serif" font-size="9.00">GepStmt: [Var153 &lt;&#45;&#45; Var60]t</text>
<text text-anchor="middle" x="1134.5" y="-1016.8" font-family="Times,serif" font-size="9.00">ValVar ID: 61</text>
<text text-anchor="middle" x="1134.5" y="-1006.8" font-family="Times,serif" font-size="9.00"> &#160;&#160;%13 = call ptr @strcpy(ptr noundef %11, ptr noundef %12) #5, !dbg !902 &#160;&quot;ln&quot;: 19, &quot;cl&quot;: 5, &quot;fl&quot;: &quot;simple_node/str_para.cpp&quot; </text>
<text text-anchor="middle" x="1134.5" y="-996.8" font-family="Times,serif" font-size="9.00">LoadStmt: [Var154 &lt;&#45;&#45; Var153]t</text>
<text text-anchor="middle" x="1134.5" y="-986.8" font-family="Times,serif" font-size="9.00">ValVar ID: 61</text>
<text text-anchor="middle" x="1134.5" y="-976.8" font-family="Times,serif" font-size="9.00"> &#160;&#160;%13 = call ptr @strcpy(ptr noundef %11, ptr noundef %12) #5, !dbg !902 &#160;&quot;ln&quot;: 19, &quot;cl&quot;: 5, &quot;fl&quot;: &quot;simple_node/str_para.cpp&quot; </text>
<text text-anchor="middle" x="1134.5" y="-966.8" font-family="Times,serif" font-size="9.00">StoreStmt: [Var152 &lt;&#45;&#45; Var154]t</text>
<text text-anchor="middle" x="1134.5" y="-956.8" font-family="Times,serif" font-size="9.00">ValVar ID: 61</text>
<text text-anchor="middle" x="1134.5" y="-946.8" font-family="Times,serif" font-size="9.00"> &#160;&#160;%13 = call ptr @strcpy(ptr noundef %11, ptr noundef %12) #5, !dbg !902 &#160;&quot;ln&quot;: 19, &quot;cl&quot;: 5, &quot;fl&quot;: &quot;simple_node/str_para.cpp&quot; </text>
<text text-anchor="middle" x="1134.5" y="-936.8" font-family="Times,serif" font-size="9.00">CopyStmt: [Var61 &lt;&#45;&#45; Var58]t</text>
<text text-anchor="middle" x="1134.5" y="-926.8" font-family="Times,serif" font-size="9.00">ValVar ID: 61</text>
<text text-anchor="middle" x="1134.5" y="-916.8" font-family="Times,serif" font-size="9.00"> &#160;&#160;%13 = call ptr @strcpy(ptr noundef %11, ptr noundef %12) #5, !dbg !902 &#160;&quot;ln&quot;: 19, &quot;cl&quot;: 5, &quot;fl&quot;: &quot;simple_node/str_para.cpp&quot; </text>
</g>
<!-- stmt_93927955231440&#45;&gt;var_93927955232672 -->
<g id="edge10" class="edge">
<title>stmt_93927955231440&#45;&gt;var_93927955232672</title>
<path fill="none" stroke="blue" d="M1107.82,-906.71C1098.84,-875.97 1089.28,-843.26 1082.08,-818.64"/>
<polygon fill="blue" stroke="blue" points="1085.42,-817.57 1079.25,-808.95 1078.7,-819.53 1085.42,-817.57"/>
<text text-anchor="middle" x="1110" y="-857.6" font-family="Times,serif" font-size="8.00">defines</text>
</g>
<!-- var_93927955233872 -->
<g id="node12" class="node">
<title>var_93927955233872</title>
<polygon fill="lightblue" stroke="black" stroke-width="2" points="1134.5,-1254 1044.5,-1220 1134.5,-1186 1224.5,-1220 1134.5,-1254"/>
<text text-anchor="middle" x="1134.5" y="-1222.8" font-family="Times,serif" font-size="9.00">Ptr</text>
<text text-anchor="middle" x="1134.5" y="-1212.8" font-family="Times,serif" font-size="9.00">PointedVarNode</text>
</g>
<!-- var_93927955233872&#45;&gt;stmt_93927955231440 -->
<g id="edge9" class="edge">
<title>var_93927955233872&#45;&gt;stmt_93927955231440</title>
<path fill="none" stroke="red" d="M1134.5,-1185.74C1134.5,-1163.16 1134.5,-1132 1134.5,-1101.65"/>
<polygon fill="red" stroke="red" points="1138,-1101.4 1134.5,-1091.4 1131,-1101.4 1138,-1101.4"/>
<text text-anchor="middle" x="1145.5" y="-1136.6" font-family="Times,serif" font-size="8.00">input</text>
</g>
<!-- stmt_93927955241232 -->
<g id="node13" class="node">
<title>stmt_93927955241232</title>
<path fill="lightcoral" stroke="black" d="M1509,-1503C1509,-1503 760,-1503 760,-1503 754,-1503 748,-1497 748,-1491 748,-1491 748,-1361 748,-1361 748,-1355 754,-1349 760,-1349 760,-1349 1509,-1349 1509,-1349 1515,-1349 1521,-1355 1521,-1361 1521,-1361 1521,-1491 1521,-1491 1521,-1497 1515,-1503 1509,-1503"/>
<text text-anchor="middle" x="1134.5" y="-1488.8" font-family="Times,serif" font-size="9.00">Stmt[14]</text>
<text text-anchor="middle" x="1134.5" y="-1478.8" font-family="Times,serif" font-size="9.00">CallICFGNode14 fun: main &quot;ln&quot;: 10, &quot;cl&quot;: 10, &quot;fl&quot;: &quot;simple_node/str_para.cpp&quot; </text>
<text text-anchor="middle" x="1134.5" y="-1468.8" font-family="Times,serif" font-size="9.00">GepStmt: [Var146 &lt;&#45;&#45; Var23]t</text>
<text text-anchor="middle" x="1134.5" y="-1458.8" font-family="Times,serif" font-size="9.00">ValVar ID: 44</text>
<text text-anchor="middle" x="1134.5" y="-1448.8" font-family="Times,serif" font-size="9.00"> &#160;&#160;call void @llvm.memcpy.p0.p0.i64(ptr align 1 %2, ptr align 1 @__const.main.str1, i64 14, i1 false), !dbg !881 &#160;&quot;ln&quot;: 10, &quot;cl&quot;: 10, &quot;fl&quot;: &quot;simple_node/str_para.cpp&quot; </text>
<text text-anchor="middle" x="1134.5" y="-1438.8" font-family="Times,serif" font-size="9.00">GepStmt: [Var147 &lt;&#45;&#45; Var4]t</text>
<text text-anchor="middle" x="1134.5" y="-1428.8" font-family="Times,serif" font-size="9.00">ValVar ID: 44</text>
<text text-anchor="middle" x="1134.5" y="-1418.8" font-family="Times,serif" font-size="9.00"> &#160;&#160;call void @llvm.memcpy.p0.p0.i64(ptr align 1 %2, ptr align 1 @__const.main.str1, i64 14, i1 false), !dbg !881 &#160;&quot;ln&quot;: 10, &quot;cl&quot;: 10, &quot;fl&quot;: &quot;simple_node/str_para.cpp&quot; </text>
<text text-anchor="middle" x="1134.5" y="-1408.8" font-family="Times,serif" font-size="9.00">LoadStmt: [Var148 &lt;&#45;&#45; Var147]t</text>
<text text-anchor="middle" x="1134.5" y="-1398.8" font-family="Times,serif" font-size="9.00">ValVar ID: 44</text>
<text text-anchor="middle" x="1134.5" y="-1388.8" font-family="Times,serif" font-size="9.00"> &#160;&#160;call void @llvm.memcpy.p0.p0.i64(ptr align 1 %2, ptr align 1 @__const.main.str1, i64 14, i1 false), !dbg !881 &#160;&quot;ln&quot;: 10, &quot;cl&quot;: 10, &quot;fl&quot;: &quot;simple_node/str_para.cpp&quot; </text>
<text text-anchor="middle" x="1134.5" y="-1378.8" font-family="Times,serif" font-size="9.00">StoreStmt: [Var146 &lt;&#45;&#45; Var148]t</text>
<text text-anchor="middle" x="1134.5" y="-1368.8" font-family="Times,serif" font-size="9.00">ValVar ID: 44</text>
<text text-anchor="middle" x="1134.5" y="-1358.8" font-family="Times,serif" font-size="9.00"> &#160;&#160;call void @llvm.memcpy.p0.p0.i64(ptr align 1 %2, ptr align 1 @__const.main.str1, i64 14, i1 false), !dbg !881 &#160;&quot;ln&quot;: 10, &quot;cl&quot;: 10, &quot;fl&quot;: &quot;simple_node/str_para.cpp&quot; </text>
</g>
<!-- stmt_93927955241232&#45;&gt;var_93927955233872 -->
<g id="edge8" class="edge">
<title>stmt_93927955241232&#45;&gt;var_93927955233872</title>
<path fill="none" stroke="blue" d="M1134.5,-1348.75C1134.5,-1320.23 1134.5,-1288.84 1134.5,-1264.31"/>
<polygon fill="blue" stroke="blue" points="1138,-1264.24 1134.5,-1254.24 1131,-1264.24 1138,-1264.24"/>
<text text-anchor="middle" x="1149" y="-1299.6" font-family="Times,serif" font-size="8.00">defines</text>
</g>
<!-- var_93927955241168 -->
<g id="node14" class="node">
<title>var_93927955241168</title>
<polygon fill="lightblue" stroke="black" stroke-width="2" points="1015.5,-1666 925.5,-1632 1015.5,-1598 1105.5,-1632 1015.5,-1666"/>
<text text-anchor="middle" x="1015.5" y="-1634.8" font-family="Times,serif" font-size="9.00">Ptr</text>
<text text-anchor="middle" x="1015.5" y="-1624.8" font-family="Times,serif" font-size="9.00">PointedVarNode</text>
</g>
<!-- var_93927955241168&#45;&gt;stmt_93927955241232 -->
<g id="edge6" class="edge">
<title>var_93927955241168&#45;&gt;stmt_93927955241232</title>
<path fill="none" stroke="red" d="M1031.3,-1603.91C1045.06,-1580.33 1065.76,-1544.85 1085.01,-1511.83"/>
<polygon fill="red" stroke="red" points="1088.12,-1513.46 1090.14,-1503.05 1082.07,-1509.93 1088.12,-1513.46"/>
<text text-anchor="middle" x="1075.5" y="-1548.6" font-family="Times,serif" font-size="8.00">input</text>
</g>
<!-- var_93927955232768 -->
<g id="node15" class="node">
<title>var_93927955232768</title>
<polygon fill="lightblue" stroke="black" stroke-width="2" points="1253.5,-1666 1163.5,-1632 1253.5,-1598 1343.5,-1632 1253.5,-1666"/>
<text text-anchor="middle" x="1253.5" y="-1634.8" font-family="Times,serif" font-size="9.00">Ptr</text>
<text text-anchor="middle" x="1253.5" y="-1624.8" font-family="Times,serif" font-size="9.00">PointedVarNode</text>
</g>
<!-- var_93927955232768&#45;&gt;stmt_93927955241232 -->
<g id="edge7" class="edge">
<title>var_93927955232768&#45;&gt;stmt_93927955241232</title>
<path fill="none" stroke="red" d="M1237.7,-1603.91C1223.94,-1580.33 1203.24,-1544.85 1183.99,-1511.83"/>
<polygon fill="red" stroke="red" points="1186.93,-1509.93 1178.86,-1503.05 1180.88,-1513.46 1186.93,-1509.93"/>
<text text-anchor="middle" x="1219.5" y="-1548.6" font-family="Times,serif" font-size="8.00">input</text>
</g>
<!-- var_93927955249536 -->
<g id="node16" class="node">
<title>var_93927955249536</title>
<polygon fill="lightblue" stroke="black" stroke-width="2" points="1494.5,-370 1404.5,-336 1494.5,-302 1584.5,-336 1494.5,-370"/>
<text text-anchor="middle" x="1494.5" y="-338.8" font-family="Times,serif" font-size="9.00">Ptr</text>
<text text-anchor="middle" x="1494.5" y="-328.8" font-family="Times,serif" font-size="9.00">PointedVarNode</text>
</g>
<!-- var_93927955249536&#45;&gt;stmt_93927955224080 -->
<g id="edge17" class="edge">
<title>var_93927955249536&#45;&gt;stmt_93927955224080</title>
<path fill="none" stroke="red" d="M1447.72,-319.48C1369.52,-293.52 1211.67,-241.14 1118.66,-210.28"/>
<polygon fill="red" stroke="red" points="1119.63,-206.91 1109.04,-207.09 1117.43,-213.56 1119.63,-206.91"/>
<text text-anchor="middle" x="1268.5" y="-252.6" font-family="Times,serif" font-size="8.00">input</text>
</g>
<!-- stmt_93927955230752 -->
<g id="node17" class="node">
<title>stmt_93927955230752</title>
<path fill="lightcoral" stroke="black" d="M1837,-649C1837,-649 1258,-649 1258,-649 1252,-649 1246,-643 1246,-637 1246,-637 1246,-477 1246,-477 1246,-471 1252,-465 1258,-465 1258,-465 1837,-465 1837,-465 1843,-465 1849,-471 1849,-477 1849,-477 1849,-637 1849,-637 1849,-643 1843,-649 1837,-649"/>
<text text-anchor="middle" x="1547.5" y="-634.8" font-family="Times,serif" font-size="9.00">Stmt[28]</text>
<text text-anchor="middle" x="1547.5" y="-624.8" font-family="Times,serif" font-size="9.00">CallICFGNode28 fun: main &quot;ln&quot;: 23, &quot;cl&quot;: 5, &quot;fl&quot;: &quot;simple_node/str_para.cpp&quot; </text>
<text text-anchor="middle" x="1547.5" y="-614.8" font-family="Times,serif" font-size="9.00">GepStmt: [Var155 &lt;&#45;&#45; Var68]t</text>
<text text-anchor="middle" x="1547.5" y="-604.8" font-family="Times,serif" font-size="9.00">ValVar ID: 70</text>
<text text-anchor="middle" x="1547.5" y="-594.8" font-family="Times,serif" font-size="9.00"> &#160;&#160;%18 = call ptr @strcat(ptr noundef %16, ptr noundef %17) #5, !dbg !907 &#160;&quot;ln&quot;: 23, &quot;cl&quot;: 5, &quot;fl&quot;: &quot;simple_node/str_para.cpp&quot; </text>
<text text-anchor="middle" x="1547.5" y="-584.8" font-family="Times,serif" font-size="9.00">GepStmt: [Var156 &lt;&#45;&#45; Var69]t</text>
<text text-anchor="middle" x="1547.5" y="-574.8" font-family="Times,serif" font-size="9.00">ValVar ID: 70</text>
<text text-anchor="middle" x="1547.5" y="-564.8" font-family="Times,serif" font-size="9.00"> &#160;&#160;%18 = call ptr @strcat(ptr noundef %16, ptr noundef %17) #5, !dbg !907 &#160;&quot;ln&quot;: 23, &quot;cl&quot;: 5, &quot;fl&quot;: &quot;simple_node/str_para.cpp&quot; </text>
<text text-anchor="middle" x="1547.5" y="-554.8" font-family="Times,serif" font-size="9.00">LoadStmt: [Var157 &lt;&#45;&#45; Var156]t</text>
<text text-anchor="middle" x="1547.5" y="-544.8" font-family="Times,serif" font-size="9.00">ValVar ID: 70</text>
<text text-anchor="middle" x="1547.5" y="-534.8" font-family="Times,serif" font-size="9.00"> &#160;&#160;%18 = call ptr @strcat(ptr noundef %16, ptr noundef %17) #5, !dbg !907 &#160;&quot;ln&quot;: 23, &quot;cl&quot;: 5, &quot;fl&quot;: &quot;simple_node/str_para.cpp&quot; </text>
<text text-anchor="middle" x="1547.5" y="-524.8" font-family="Times,serif" font-size="9.00">StoreStmt: [Var155 &lt;&#45;&#45; Var157]t</text>
<text text-anchor="middle" x="1547.5" y="-514.8" font-family="Times,serif" font-size="9.00">ValVar ID: 70</text>
<text text-anchor="middle" x="1547.5" y="-504.8" font-family="Times,serif" font-size="9.00"> &#160;&#160;%18 = call ptr @strcat(ptr noundef %16, ptr noundef %17) #5, !dbg !907 &#160;&quot;ln&quot;: 23, &quot;cl&quot;: 5, &quot;fl&quot;: &quot;simple_node/str_para.cpp&quot; </text>
<text text-anchor="middle" x="1547.5" y="-494.8" font-family="Times,serif" font-size="9.00">CopyStmt: [Var70 &lt;&#45;&#45; Var68]t</text>
<text text-anchor="middle" x="1547.5" y="-484.8" font-family="Times,serif" font-size="9.00">ValVar ID: 70</text>
<text text-anchor="middle" x="1547.5" y="-474.8" font-family="Times,serif" font-size="9.00"> &#160;&#160;%18 = call ptr @strcat(ptr noundef %16, ptr noundef %17) #5, !dbg !907 &#160;&quot;ln&quot;: 23, &quot;cl&quot;: 5, &quot;fl&quot;: &quot;simple_node/str_para.cpp&quot; </text>
</g>
<!-- stmt_93927955230752&#45;&gt;var_93927955249536 -->
<g id="edge16" class="edge">
<title>stmt_93927955230752&#45;&gt;var_93927955249536</title>
<path fill="none" stroke="blue" d="M1525.41,-464.71C1518.05,-434.31 1510.23,-401.99 1504.29,-377.47"/>
<polygon fill="blue" stroke="blue" points="1507.63,-376.36 1501.87,-367.46 1500.82,-378 1507.63,-376.36"/>
<text text-anchor="middle" x="1530" y="-415.6" font-family="Times,serif" font-size="8.00">defines</text>
</g>
<!-- var_93927955240960 -->
<g id="node18" class="node">
<title>var_93927955240960</title>
<polygon fill="lightblue" stroke="black" stroke-width="2" points="1400.5,-812 1310.5,-778 1400.5,-744 1490.5,-778 1400.5,-812"/>
<text text-anchor="middle" x="1400.5" y="-780.8" font-family="Times,serif" font-size="9.00">Ptr</text>
<text text-anchor="middle" x="1400.5" y="-770.8" font-family="Times,serif" font-size="9.00">PointedVarNode</text>
</g>
<!-- var_93927955240960&#45;&gt;stmt_93927955230752 -->
<g id="edge14" class="edge">
<title>var_93927955240960&#45;&gt;stmt_93927955230752</title>
<path fill="none" stroke="red" d="M1418.23,-750.58C1433.86,-727.3 1457.65,-691.86 1480.58,-657.7"/>
<polygon fill="red" stroke="red" points="1483.71,-659.31 1486.38,-649.05 1477.9,-655.41 1483.71,-659.31"/>
<text text-anchor="middle" x="1468.5" y="-694.6" font-family="Times,serif" font-size="8.00">input</text>
</g>
<!-- var_93927955232416 -->
<g id="node19" class="node">
<title>var_93927955232416</title>
<polygon fill="lightblue" stroke="black" stroke-width="2" points="1638.5,-812 1548.5,-778 1638.5,-744 1728.5,-778 1638.5,-812"/>
<text text-anchor="middle" x="1638.5" y="-780.8" font-family="Times,serif" font-size="9.00">Ptr</text>
<text text-anchor="middle" x="1638.5" y="-770.8" font-family="Times,serif" font-size="9.00">PointedVarNode</text>
</g>
<!-- var_93927955232416&#45;&gt;stmt_93927955230752 -->
<g id="edge15" class="edge">
<title>var_93927955232416&#45;&gt;stmt_93927955230752</title>
<path fill="none" stroke="red" d="M1626.6,-748.37C1617.04,-725.36 1603.01,-691.6 1589.41,-658.87"/>
<polygon fill="red" stroke="red" points="1592.47,-657.11 1585.4,-649.22 1586.01,-659.8 1592.47,-657.11"/>
<text text-anchor="middle" x="1617.5" y="-694.6" font-family="Times,serif" font-size="8.00">input</text>
</g>
</g>
</svg>
